<svg width="14" height="15" viewBox="0 0 14 15" fill="none" xmlns="http://www.w3.org/2000/svg">
<path d="M7.00065 0.833008C5.68211 0.833008 4.39318 1.224 3.29685 1.95654C2.20052 2.68909 1.34604 3.73028 0.841457 4.94845C0.336873 6.16663 0.204851 7.50707 0.462086 8.80028C0.71932 10.0935 1.35426 11.2814 2.28661 12.2137C3.21896 13.1461 4.40685 13.781 5.70005 14.0382C6.99326 14.2955 8.3337 14.1635 9.55188 13.6589C10.7701 13.1543 11.8112 12.2998 12.5438 11.2035C13.2763 10.1071 13.6673 8.81822 13.6673 7.49967C13.6673 6.6242 13.4949 5.75729 13.1599 4.94845C12.8248 4.13961 12.3338 3.40469 11.7147 2.78563C11.0956 2.16657 10.3607 1.67551 9.55188 1.34048C8.74304 1.00545 7.87613 0.833008 7.00065 0.833008ZM7.00065 12.833C5.94582 12.833 4.91467 12.5202 4.03761 11.9342C3.16055 11.3481 2.47696 10.5152 2.0733 9.54065C1.66963 8.56611 1.56401 7.49376 1.7698 6.45919C1.97559 5.42463 2.48354 4.47432 3.22942 3.72844C3.9753 2.98256 4.92561 2.47461 5.96017 2.26882C6.99474 2.06303 8.06709 2.16865 9.04163 2.57232C10.0162 2.97598 10.8491 3.65957 11.4352 4.53663C12.0212 5.4137 12.334 6.44484 12.334 7.49967C12.334 8.91416 11.7721 10.2707 10.7719 11.2709C9.7717 12.2711 8.41514 12.833 7.00065 12.833ZM9.66732 6.83301H7.66732V4.83301C7.66732 4.6562 7.59708 4.48663 7.47206 4.3616C7.34703 4.23658 7.17747 4.16634 7.00065 4.16634C6.82384 4.16634 6.65427 4.23658 6.52925 4.3616C6.40423 4.48663 6.33399 4.6562 6.33399 4.83301V6.83301H4.33399C4.15718 6.83301 3.98761 6.90325 3.86258 7.02827C3.73756 7.15329 3.66732 7.32286 3.66732 7.49967C3.66732 7.67649 3.73756 7.84606 3.86258 7.97108C3.98761 8.0961 4.15718 8.16634 4.33399 8.16634H6.33399V10.1663C6.33399 10.3432 6.40423 10.5127 6.52925 10.6377C6.65427 10.7628 6.82384 10.833 7.00065 10.833C7.17747 10.833 7.34703 10.7628 7.47206 10.6377C7.59708 10.5127 7.66732 10.3432 7.66732 10.1663V8.16634H9.66732C9.84413 8.16634 10.0137 8.0961 10.1387 7.97108C10.2638 7.84606 10.334 7.67649 10.334 7.49967C10.334 7.32286 10.2638 7.15329 10.1387 7.02827C10.0137 6.90325 9.84413 6.83301 9.66732 6.83301Z" fill="white"/>
</svg>
