<svg width="40" height="40" viewBox="0 0 40 40" fill="none" xmlns="http://www.w3.org/2000/svg">
<circle cx="20" cy="20" r="20" fill="#E4E4E4"/>
<path d="M20.1233 17.9375C20.1002 17.9375 20.0848 17.9375 20.0617 17.9375C20.0231 17.9298 19.9692 17.9298 19.9229 17.9375C17.6879 17.8681 16 16.1091 16 13.9414C16 11.735 17.7958 9.9375 20 9.9375C22.2042 9.9375 24 11.735 24 13.9414C23.9923 16.1091 22.2967 17.8681 20.1464 17.9375C20.1387 17.9375 20.131 17.9375 20.1233 17.9375ZM20 11.0947C18.4354 11.0947 17.1561 12.3753 17.1561 13.9414C17.1561 15.4843 18.3584 16.7263 19.8921 16.7803C19.9306 16.7726 20.0385 16.7726 20.1387 16.7803C21.6493 16.7109 22.8362 15.4688 22.8439 13.9414C22.8439 12.3753 21.5646 11.0947 20 11.0947Z" fill="#858686"/>
<path d="M20 25.9125C18.4465 25.9125 16.8851 25.5375 15.7041 24.7875C14.6024 24.0975 14 23.1525 14 22.125C14 21.0975 14.6024 20.145 15.7041 19.4475C18.0819 17.955 21.9339 17.955 24.2959 19.4475C25.3897 20.1375 26 21.0825 26 22.11C26 23.1375 25.3976 24.09 24.2959 24.7875C23.107 25.5375 21.5535 25.9125 20 25.9125ZM16.362 20.3925C15.6011 20.8725 15.1889 21.4875 15.1889 22.1325C15.1889 22.77 15.609 23.385 16.362 23.8575C18.3355 25.11 21.6645 25.11 23.638 23.8575C24.3989 23.3775 24.8111 22.7625 24.8111 22.1175C24.8111 21.48 24.391 20.865 23.638 20.3925C21.6645 19.1475 18.3355 19.1475 16.362 20.3925Z" fill="#858686"/>
<path d="M20 31C22.2091 31 24 29.2091 24 27C24 24.7909 22.2091 23 20 23C17.7909 23 16 24.7909 16 27C16 29.2091 17.7909 31 20 31Z" fill="#E4E4E4" stroke="#858686" stroke-linecap="round" stroke-linejoin="round"/>
<path d="M18 27H22" stroke="#858686" stroke-linecap="round" stroke-linejoin="round"/>
<path d="M20 25V29" stroke="#858686" stroke-linecap="round" stroke-linejoin="round"/>
</svg>
