    <svg width="20" height="22" viewBox="0 0 20 22" fill="none" xmlns="http://www.w3.org/2000/svg">
<path d="M6.38034 5.01001H13.5303C13.8877 5.01001 14.1802 4.7008 14.1802 4.32288V2.94861C14.1802 1.81484 13.3028 0.887207 12.2303 0.887207H7.68032C6.60784 0.887207 5.73035 1.81484 5.73035 2.94861V4.32288C5.73035 4.7008 6.02284 5.01001 6.38034 5.01001Z" fill="#96969E"/>
<path d="M17.105 2.60986H16.455C16.26 2.60986 16.13 2.74729 16.13 2.95343V4.3277C16.13 5.83939 14.9601 7.07624 13.5301 7.07624H6.38016C4.95017 7.07624 3.78019 5.83939 3.78019 4.3277V2.95343C3.78019 2.74729 3.65019 2.60986 3.45519 2.60986H2.8052C1.73271 2.60986 0.855225 3.53749 0.855225 4.67127V19.4447C0.855225 20.5784 1.73271 21.5061 2.8052 21.5061H17.105C18.1775 21.5061 19.055 20.5784 19.055 19.4447V4.67127C19.055 3.53749 18.1775 2.60986 17.105 2.60986ZM15.415 10.8555L9.17512 17.452C9.01262 17.6237 8.81763 17.7268 8.59013 17.7268C8.36263 17.7268 8.13514 17.6237 7.97264 17.452L4.49518 13.7758C4.33268 13.604 4.33268 13.3979 4.49518 13.2261L5.17767 12.5046C5.34017 12.3328 5.53517 12.3328 5.69767 12.5046L8.55763 15.528L14.1801 9.58428C14.3426 9.41249 14.5376 9.41249 14.7001 9.58428L15.3825 10.3058C15.545 10.4776 15.545 10.718 15.415 10.8555Z" fill="#96969E"/>
</svg>