<svg width="10" height="10" viewBox="0 0 10 10" fill="none" xmlns="http://www.w3.org/2000/svg">
<path d="M9.93328 0.516667C9.84872 0.313042 9.68691 0.151229 9.48328 0.0666666C9.3831 0.0239658 9.27551 0.00131666 9.16661 0H0.833282C0.612269 0 0.400307 0.0877975 0.244027 0.244078C0.0877467 0.400358 -5.08631e-05 0.61232 -5.08631e-05 0.833333C-5.08631e-05 1.05435 0.0877467 1.26631 0.244027 1.42259C0.400307 1.57887 0.612269 1.66667 0.833282 1.66667H7.15828L0.241616 8.575C0.163509 8.65247 0.101514 8.74464 0.0592065 8.84619C0.0168993 8.94773 -0.00488281 9.05666 -0.00488281 9.16667C-0.00488281 9.27668 0.0168993 9.3856 0.0592065 9.48715C0.101514 9.5887 0.163509 9.68086 0.241616 9.75833C0.319085 9.83644 0.411252 9.89844 0.512802 9.94074C0.614351 9.98305 0.723273 10.0048 0.833282 10.0048C0.943292 10.0048 1.05221 9.98305 1.15376 9.94074C1.25531 9.89844 1.34748 9.83644 1.42495 9.75833L8.33328 2.84167V9.16667C8.33328 9.38768 8.42108 9.59964 8.57736 9.75592C8.73364 9.9122 8.9456 10 9.16661 10C9.38763 10 9.59959 9.9122 9.75587 9.75592C9.91215 9.59964 9.99995 9.38768 9.99995 9.16667V0.833333C9.99863 0.724436 9.97598 0.616852 9.93328 0.516667V0.516667Z" fill="#0B0B0B"/>
</svg>
