<svg width="48" height="15" viewBox="0 0 48 15" fill="none" xmlns="http://www.w3.org/2000/svg">
<path d="M6.99804 9.138H3.10604L2.46204 11H0.404039L3.91804 1.214H6.20004L9.71404 11H7.64204L6.99804 9.138ZM6.46604 7.57L5.05204 3.482L3.63804 7.57H6.46604ZM13.9955 11.126C13.3609 11.126 12.7915 11.014 12.2875 10.79C11.7835 10.5567 11.3822 10.244 11.0835 9.852C10.7942 9.46 10.6355 9.026 10.6075 8.55H12.5815C12.6189 8.84867 12.7635 9.096 13.0155 9.292C13.2769 9.488 13.5989 9.586 13.9815 9.586C14.3549 9.586 14.6442 9.51133 14.8495 9.362C15.0642 9.21267 15.1715 9.02133 15.1715 8.788C15.1715 8.536 15.0409 8.34933 14.7795 8.228C14.5275 8.09733 14.1215 7.95733 13.5615 7.808C12.9829 7.668 12.5069 7.52333 12.1335 7.374C11.7695 7.22467 11.4522 6.996 11.1815 6.688C10.9202 6.38 10.7895 5.96467 10.7895 5.442C10.7895 5.01267 10.9109 4.62067 11.1535 4.266C11.4055 3.91133 11.7602 3.63133 12.2175 3.426C12.6842 3.22067 13.2302 3.118 13.8555 3.118C14.7795 3.118 15.5169 3.35133 16.0675 3.818C16.6182 4.27533 16.9215 4.896 16.9775 5.68H15.1015C15.0735 5.372 14.9429 5.12933 14.7095 4.952C14.4855 4.76533 14.1822 4.672 13.7995 4.672C13.4449 4.672 13.1695 4.73733 12.9735 4.868C12.7869 4.99867 12.6935 5.18067 12.6935 5.414C12.6935 5.67533 12.8242 5.876 13.0855 6.016C13.3469 6.14667 13.7529 6.282 14.3035 6.422C14.8635 6.562 15.3255 6.70667 15.6895 6.856C16.0535 7.00533 16.3662 7.23867 16.6275 7.556C16.8982 7.864 17.0382 8.27467 17.0475 8.788C17.0475 9.236 16.9215 9.63733 16.6695 9.992C16.4269 10.3467 16.0722 10.6267 15.6055 10.832C15.1482 11.028 14.6115 11.126 13.9955 11.126ZM21.6244 11.126C20.9898 11.126 20.4204 11.014 19.9164 10.79C19.4124 10.5567 19.0111 10.244 18.7124 9.852C18.4231 9.46 18.2644 9.026 18.2364 8.55H20.2104C20.2478 8.84867 20.3924 9.096 20.6444 9.292C20.9058 9.488 21.2278 9.586 21.6104 9.586C21.9838 9.586 22.2731 9.51133 22.4784 9.362C22.6931 9.21267 22.8004 9.02133 22.8004 8.788C22.8004 8.536 22.6698 8.34933 22.4084 8.228C22.1564 8.09733 21.7504 7.95733 21.1904 7.808C20.6118 7.668 20.1358 7.52333 19.7624 7.374C19.3984 7.22467 19.0811 6.996 18.8104 6.688C18.5491 6.38 18.4184 5.96467 18.4184 5.442C18.4184 5.01267 18.5398 4.62067 18.7824 4.266C19.0344 3.91133 19.3891 3.63133 19.8464 3.426C20.3131 3.22067 20.8591 3.118 21.4844 3.118C22.4084 3.118 23.1458 3.35133 23.6964 3.818C24.2471 4.27533 24.5504 4.896 24.6064 5.68H22.7304C22.7024 5.372 22.5718 5.12933 22.3384 4.952C22.1144 4.76533 21.8111 4.672 21.4284 4.672C21.0738 4.672 20.7984 4.73733 20.6024 4.868C20.4158 4.99867 20.3224 5.18067 20.3224 5.414C20.3224 5.67533 20.4531 5.876 20.7144 6.016C20.9758 6.14667 21.3818 6.282 21.9324 6.422C22.4924 6.562 22.9544 6.70667 23.3184 6.856C23.6824 7.00533 23.9951 7.23867 24.2564 7.556C24.5271 7.864 24.6671 8.27467 24.6764 8.788C24.6764 9.236 24.5504 9.63733 24.2984 9.992C24.0558 10.3467 23.7011 10.6267 23.2344 10.832C22.7771 11.028 22.2404 11.126 21.6244 11.126ZM27.2793 2.32C26.934 2.32 26.6447 2.21267 26.4113 1.998C26.1873 1.774 26.0753 1.49867 26.0753 1.172C26.0753 0.845333 26.1873 0.574666 26.4113 0.359999C26.6447 0.135999 26.934 0.0239995 27.2793 0.0239995C27.6247 0.0239995 27.9093 0.135999 28.1333 0.359999C28.3667 0.574666 28.4833 0.845333 28.4833 1.172C28.4833 1.49867 28.3667 1.774 28.1333 1.998C27.9093 2.21267 27.6247 2.32 27.2793 2.32ZM28.2453 3.244V11H26.2853V3.244H28.2453ZM33.2198 3.118C33.7985 3.118 34.3072 3.23467 34.7458 3.468C35.1845 3.692 35.5298 3.986 35.7818 4.35V3.244H37.7558V11.056C37.7558 11.7747 37.6112 12.414 37.3218 12.974C37.0325 13.5433 36.5985 13.9913 36.0198 14.318C35.4412 14.654 34.7412 14.822 33.9198 14.822C32.8185 14.822 31.9132 14.5653 31.2038 14.052C30.5038 13.5387 30.1072 12.8387 30.0138 11.952H31.9598C32.0625 12.3067 32.2818 12.5867 32.6178 12.792C32.9632 13.0067 33.3785 13.114 33.8638 13.114C34.4332 13.114 34.8952 12.9413 35.2498 12.596C35.6045 12.26 35.7818 11.7467 35.7818 11.056V9.852C35.5298 10.216 35.1798 10.5193 34.7318 10.762C34.2932 11.0047 33.7892 11.126 33.2198 11.126C32.5665 11.126 31.9692 10.958 31.4278 10.622C30.8865 10.286 30.4572 9.81467 30.1398 9.208C29.8318 8.592 29.6778 7.88733 29.6778 7.094C29.6778 6.31 29.8318 5.61467 30.1398 5.008C30.4572 4.40133 30.8818 3.93467 31.4138 3.608C31.9552 3.28133 32.5572 3.118 33.2198 3.118ZM35.7818 7.122C35.7818 6.646 35.6885 6.24 35.5018 5.904C35.3152 5.55867 35.0632 5.29733 34.7458 5.12C34.4285 4.93333 34.0878 4.84 33.7238 4.84C33.3598 4.84 33.0238 4.92867 32.7158 5.106C32.4078 5.28333 32.1558 5.54467 31.9598 5.89C31.7732 6.226 31.6798 6.62733 31.6798 7.094C31.6798 7.56067 31.7732 7.97133 31.9598 8.326C32.1558 8.67133 32.4078 8.93733 32.7158 9.124C33.0332 9.31067 33.3692 9.404 33.7238 9.404C34.0878 9.404 34.4285 9.31533 34.7458 9.138C35.0632 8.95133 35.3152 8.69 35.5018 8.354C35.6885 8.00867 35.7818 7.598 35.7818 7.122ZM43.9681 3.132C44.8921 3.132 45.6388 3.426 46.2081 4.014C46.7774 4.59267 47.0621 5.40467 47.0621 6.45V11H45.1021V6.716C45.1021 6.1 44.9481 5.62867 44.6401 5.302C44.3321 4.966 43.9121 4.798 43.3801 4.798C42.8388 4.798 42.4094 4.966 42.0921 5.302C41.7841 5.62867 41.6301 6.1 41.6301 6.716V11H39.6701V3.244H41.6301V4.21C41.8914 3.874 42.2228 3.61267 42.6241 3.426C43.0348 3.23 43.4828 3.132 43.9681 3.132Z" fill="#0EADE5"/>
</svg>
