<svg width="14" height="16" viewBox="0 0 14 16" fill="none" xmlns="http://www.w3.org/2000/svg">
<path d="M9.07815 4.35773L4.1668 9.26914C4.03541 9.40053 3.93118 9.55652 3.86007 9.72819C3.78896 9.89986 3.75236 10.0839 3.75236 10.2697C3.75236 10.4555 3.78896 10.6395 3.86007 10.8112C3.93118 10.9828 4.03541 11.1388 4.1668 11.2702C4.29819 11.4016 4.45418 11.5058 4.62585 11.5769C4.79752 11.6481 4.98152 11.6847 5.16734 11.6847C5.35316 11.6847 5.53715 11.6481 5.70883 11.5769C5.8805 11.5058 6.03648 11.4016 6.16788 11.2702L11.0581 6.37999C11.3236 6.11449 11.5342 5.79929 11.6779 5.4524C11.8216 5.1055 11.8956 4.7337 11.8956 4.35822C11.8956 3.98275 11.8216 3.61095 11.6779 3.26405C11.5342 2.91716 11.3236 2.60196 11.0581 2.33646C10.5219 1.80026 9.79465 1.49902 9.03634 1.49902C8.27803 1.49902 7.55078 1.80026 7.01457 2.33646L2.14599 7.20498C1.74923 7.60174 1.4345 8.07276 1.21978 8.59116C1.00505 9.10955 0.894531 9.66516 0.894531 10.2263C0.894531 10.7874 1.00505 11.343 1.21978 11.8614C1.4345 12.3798 1.74923 12.8508 2.14599 13.2476C2.54275 13.6443 3.01378 13.9591 3.53217 14.1738C4.05057 14.3885 4.60618 14.499 5.16729 14.499C5.72839 14.499 6.284 14.3885 6.8024 14.1738C7.32079 13.9591 7.79182 13.6443 8.18858 13.2476L13.1094 8.32674" stroke="#050B1E" stroke-width="1.39405" stroke-linecap="round" stroke-linejoin="round"/>
</svg>
