<svg width="10" height="10" viewBox="0 0 10 10" fill="none" xmlns="http://www.w3.org/2000/svg">
<path d="M7.8125 1.25H7.1875V0.9375C7.1875 0.85462 7.15458 0.775134 7.09597 0.716529C7.03737 0.657924 6.95788 0.625 6.875 0.625C6.79212 0.625 6.71263 0.657924 6.65403 0.716529C6.59542 0.775134 6.5625 0.85462 6.5625 0.9375V1.25H5.3125V0.9375C5.3125 0.85462 5.27958 0.775134 5.22097 0.716529C5.16237 0.657924 5.08288 0.625 5 0.625C4.91712 0.625 4.83763 0.657924 4.77903 0.716529C4.72042 0.775134 4.6875 0.85462 4.6875 0.9375V1.25H3.4375V0.9375C3.4375 0.85462 3.40458 0.775134 3.34597 0.716529C3.28737 0.657924 3.20788 0.625 3.125 0.625C3.04212 0.625 2.96263 0.657924 2.90403 0.716529C2.84542 0.775134 2.8125 0.85462 2.8125 0.9375V1.25H2.1875C2.0218 1.25019 1.86294 1.3161 1.74577 1.43327C1.6286 1.55044 1.56269 1.7093 1.5625 1.875V7.8125C1.56288 8.1439 1.6947 8.46163 1.92904 8.69596C2.16337 8.9303 2.4811 9.06212 2.8125 9.0625H7.1875C7.5189 9.06212 7.83663 8.9303 8.07096 8.69596C8.3053 8.46163 8.43712 8.1439 8.4375 7.8125V1.875C8.43731 1.7093 8.3714 1.55044 8.25423 1.43327C8.13706 1.3161 7.9782 1.25019 7.8125 1.25ZM6.25 6.5625H3.75C3.66712 6.5625 3.58763 6.52958 3.52903 6.47097C3.47042 6.41237 3.4375 6.33288 3.4375 6.25C3.4375 6.16712 3.47042 6.08763 3.52903 6.02903C3.58763 5.97042 3.66712 5.9375 3.75 5.9375H6.25C6.33288 5.9375 6.41237 5.97042 6.47097 6.02903C6.52958 6.08763 6.5625 6.16712 6.5625 6.25C6.5625 6.33288 6.52958 6.41237 6.47097 6.47097C6.41237 6.52958 6.33288 6.5625 6.25 6.5625ZM6.25 5.3125H3.75C3.66712 5.3125 3.58763 5.27958 3.52903 5.22097C3.47042 5.16237 3.4375 5.08288 3.4375 5C3.4375 4.91712 3.47042 4.83763 3.52903 4.77903C3.58763 4.72042 3.66712 4.6875 3.75 4.6875H6.25C6.33288 4.6875 6.41237 4.72042 6.47097 4.77903C6.52958 4.83763 6.5625 4.91712 6.5625 5C6.5625 5.08288 6.52958 5.16237 6.47097 5.22097C6.41237 5.27958 6.33288 5.3125 6.25 5.3125Z" fill="#96969E"/>
</svg>
