<svg width="38" height="32" viewBox="0 0 38 32" fill="none" xmlns="http://www.w3.org/2000/svg">
<path d="M9.02157 11.0003L9.04327 11.0015C9.225 11.0109 9.40483 10.9607 9.5553 10.8584C9.70517 10.7565 9.81771 10.6085 9.8759 10.4369L10.775 7.70637L10.777 7.70032L10.777 7.70033C10.9447 7.20377 11.2642 6.77249 11.6904 6.46743C12.1163 6.16261 12.6271 5.99923 13.1508 6.00033M9.02157 11.0003L13.1498 6.83366M9.02157 11.0003H8.99984H5.6665C5.00346 11.0003 4.36758 11.2637 3.89874 11.7326C3.4299 12.2014 3.1665 12.8373 3.1665 13.5003V26.8337C3.1665 27.4967 3.4299 28.1326 3.89874 28.6014C4.36758 29.0703 5.00346 29.3337 5.6665 29.3337H28.9998C29.6629 29.3337 30.2988 29.0703 30.7676 28.6014C31.2364 28.1326 31.4998 27.4967 31.4998 26.8337V15.167C31.4998 14.946 31.5876 14.734 31.7439 14.5777C31.9002 14.4215 32.1122 14.3337 32.3332 14.3337V13.5011L32.3342 14.3337C32.4472 14.3335 32.5591 14.3564 32.663 14.4008C32.767 14.4453 32.8608 14.5104 32.9387 14.5923C33.0167 14.6741 33.0771 14.771 33.1165 14.8769C33.1558 14.9829 33.1732 15.0958 33.1675 15.2087L33.1665 15.2295V15.2503V26.917C33.1665 28.0221 32.7275 29.0819 31.9461 29.8633C31.1647 30.6447 30.1049 31.0837 28.9998 31.0837H5.6665C4.56143 31.0837 3.50163 30.6447 2.72023 29.8633C1.93882 29.0819 1.49984 28.0221 1.49984 26.917V13.5837C1.49984 12.4786 1.93882 11.4188 2.72023 10.6374C3.50163 9.85598 4.56143 9.41699 5.6665 9.41699H7.79984H8.40813L8.59352 8.83764L9.12521 7.17612M9.02157 11.0003L9.12521 7.17612M13.1508 6.00033C13.1512 6.00033 13.1516 6.00033 13.152 6.00033L13.1498 6.83366M13.1508 6.00033H13.1498V6.83366M13.1508 6.00033H22.3332C22.5542 6.00033 22.7661 5.91253 22.9224 5.75625C23.0787 5.59997 23.1665 5.38801 23.1665 5.16699C23.1665 4.94598 23.0787 4.73402 22.9224 4.57774C22.7661 4.42146 22.5542 4.33366 22.3332 4.33366H13.0673M13.1498 6.83366H22.3332C22.7752 6.83366 23.1991 6.65806 23.5117 6.3455C23.8242 6.03294 23.9998 5.60902 23.9998 5.16699C23.9998 4.72496 23.8242 4.30104 23.5117 3.98848C23.1991 3.67592 22.7752 3.50033 22.3332 3.50033H13.0665M13.0673 4.33366C13.0676 4.33366 13.0678 4.33366 13.0681 4.33366L13.0665 3.50033M13.0673 4.33366C12.1947 4.33544 11.3447 4.61114 10.6372 5.12186C9.93081 5.63174 9.40205 6.35018 9.12521 7.17612M13.0673 4.33366H13.0665V3.50033M13.0665 3.50033L9.12521 7.17612M32.3332 13.5003C31.8911 13.5003 31.4672 13.6759 31.1547 13.9885C30.8421 14.301 30.6665 14.725 30.6665 15.167V26.8337C30.6665 27.2757 30.4909 27.6996 30.1783 28.0122C29.8658 28.3247 29.4419 28.5003 28.9998 28.5003H5.6665C5.22448 28.5003 4.80055 28.3247 4.48799 28.0122C4.17543 27.6996 3.99984 27.2757 3.99984 26.8337V13.5003C3.99984 13.0583 4.17543 12.6344 4.48799 12.3218C4.80055 12.0093 5.22448 11.8337 5.6665 11.8337H8.99984L32.3332 13.5003ZM32.3332 13.5003C32.5592 13.5 32.783 13.5458 32.9908 13.6347C33.1987 13.7236 33.3862 13.8539 33.5421 14.0176C33.6981 14.1813 33.819 14.375 33.8977 14.5869C33.9764 14.7988 34.0111 15.0245 33.9998 15.2503V26.917C33.9998 28.2431 33.473 29.5148 32.5354 30.4525C31.5977 31.3902 30.3259 31.917 28.9998 31.917H5.6665C4.34042 31.917 3.06865 31.3902 2.13097 30.4525C1.19329 29.5148 0.666504 28.2431 0.666504 26.917V13.5837C0.666504 12.2576 1.19329 10.9858 2.13097 10.0481C3.06865 9.11044 4.34042 8.58366 5.6665 8.58366H7.79984L8.33317 6.91699L32.3332 13.5003ZM33.1665 3.50033V4.33366H33.9998H35.6665C35.8875 4.33366 36.0995 4.42146 36.2558 4.57774C36.412 4.73402 36.4998 4.94598 36.4998 5.16699C36.4998 5.38801 36.412 5.59997 36.2558 5.75625C36.0995 5.91253 35.8875 6.00033 35.6665 6.00033H33.9998H33.1665V6.83366V8.50033C33.1665 8.72134 33.0787 8.9333 32.9224 9.08958C32.7661 9.24586 32.5542 9.33366 32.3332 9.33366C32.1122 9.33366 31.9002 9.24586 31.7439 9.08958C31.5876 8.9333 31.4998 8.72134 31.4998 8.50033V6.83366V6.00033H30.6665H28.9998C28.7788 6.00033 28.5669 5.91253 28.4106 5.75625C28.2543 5.59997 28.1665 5.38801 28.1665 5.16699C28.1665 4.94598 28.2543 4.73402 28.4106 4.57774C28.5669 4.42146 28.7788 4.33366 28.9998 4.33366H30.6665H31.4998V3.50033V1.83366C31.4998 1.61264 31.5876 1.40068 31.7439 1.2444C31.9002 1.08812 32.1122 1.00033 32.3332 1.00033C32.5542 1.00033 32.7661 1.08812 32.9224 1.2444C33.0787 1.40068 33.1665 1.61264 33.1665 1.83366V3.50033ZM14.0923 13.6501C15.0516 13.0091 16.1794 12.667 17.3332 12.667C18.8803 12.667 20.364 13.2816 21.458 14.3755C22.5519 15.4695 23.1665 16.9532 23.1665 18.5003C23.1665 19.654 22.8244 20.7819 22.1834 21.7411C21.5424 22.7004 20.6314 23.4481 19.5655 23.8896C18.4996 24.3311 17.3267 24.4467 16.1951 24.2216C15.0636 23.9965 14.0242 23.4409 13.2084 22.6251C12.3926 21.8093 11.837 20.7699 11.6119 19.6384C11.3868 18.5068 11.5024 17.3339 11.9439 16.268C12.3854 15.2021 13.1331 14.2911 14.0923 13.6501ZM15.0183 21.9648C15.7035 22.4226 16.5091 22.667 17.3332 22.667C18.4382 22.667 19.498 22.228 20.2794 21.4466C21.0608 20.6652 21.4998 19.6054 21.4998 18.5003C21.4998 17.6762 21.2555 16.8707 20.7976 16.1854C20.3398 15.5002 19.689 14.9662 18.9277 14.6508C18.1663 14.3355 17.3285 14.2529 16.5203 14.4137C15.712 14.5745 14.9696 14.9713 14.3869 15.554C13.8042 16.1368 13.4073 16.8792 13.2466 17.6874C13.0858 18.4957 13.1683 19.3335 13.4837 20.0948C13.799 20.8562 14.3331 21.5069 15.0183 21.9648Z" fill="#D9D9D9" stroke="#C8C9C9" stroke-width="1.66667"/>
</svg>
