<svg width="12" height="12" viewBox="0 0 12 12" fill="none" xmlns="http://www.w3.org/2000/svg">
<path d="M7.04645 5.64645L6.69289 6L7.04645 6.35355L11.3464 10.6536C11.5512 10.8583 11.5512 11.1417 11.3464 11.3464C11.276 11.4169 11.2253 11.4499 11.1844 11.4681C11.1457 11.4853 11.0917 11.5 11 11.5C10.9083 11.5 10.8543 11.4853 10.8156 11.4681C10.7747 11.4499 10.724 11.4169 10.6536 11.3464L6.35355 7.04645L6 6.69289L5.64645 7.04645L1.34645 11.3464C1.27596 11.4169 1.22535 11.4499 1.18443 11.4681C1.14569 11.4853 1.09166 11.5 1 11.5C0.813624 11.5 0.697164 11.4401 0.628553 11.3714C0.559943 11.3028 0.5 11.1864 0.5 11C0.5 10.9083 0.514686 10.8543 0.531906 10.8156C0.550092 10.7747 0.583071 10.724 0.653553 10.6536L4.95355 6.35355L5.30711 6L4.95355 5.64645L0.653554 1.34645C0.448816 1.14171 0.448816 0.858291 0.653554 0.653553C0.858291 0.448816 1.14171 0.448816 1.34645 0.653553L5.64645 4.95355L6 5.30711L6.35355 4.95355L10.6536 0.653553C10.8583 0.448816 11.1417 0.448816 11.3464 0.653553C11.5512 0.858291 11.5512 1.14171 11.3464 1.34645L7.04645 5.64645Z" stroke="#0B0B0B"/>
</svg>
