<svg width="10" height="10" viewBox="0 0 10 10" fill="none" xmlns="http://www.w3.org/2000/svg">
<g clip-path="url(#clip0_483_4013)">
<path d="M7.77902 0.833984H6.98735C6.07902 0.833984 5.59985 1.31315 5.59985 2.22148V3.01315C5.59985 3.92148 6.07902 4.40065 6.98735 4.40065H7.77902C8.68735 4.40065 9.16652 3.92148 9.16652 3.01315V2.22148C9.16652 1.31315 8.68735 0.833984 7.77902 0.833984Z" fill="#96969E"/>
<path d="M3.01659 5.5957H2.22492C1.31242 5.5957 0.833252 6.07487 0.833252 6.9832V7.77487C0.833252 8.68737 1.31242 9.16654 2.22075 9.16654H3.01242C3.92075 9.16654 4.39992 8.68737 4.39992 7.77904V6.98737C4.40409 6.07487 3.92492 5.5957 3.01659 5.5957Z" fill="#96969E"/>
<path d="M2.62075 4.40898C3.60796 4.40898 4.40825 3.60869 4.40825 2.62148C4.40825 1.63428 3.60796 0.833984 2.62075 0.833984C1.63354 0.833984 0.833252 1.63428 0.833252 2.62148C0.833252 3.60869 1.63354 4.40898 2.62075 4.40898Z" fill="#96969E"/>
<path d="M7.37905 9.1668C8.36626 9.1668 9.16655 8.36651 9.16655 7.3793C9.16655 6.39209 8.36626 5.5918 7.37905 5.5918C6.39184 5.5918 5.59155 6.39209 5.59155 7.3793C5.59155 8.36651 6.39184 9.1668 7.37905 9.1668Z" fill="#96969E"/>
</g>
<defs>
<clipPath id="clip0_483_4013">
<rect width="10" height="10" fill="white"/>
</clipPath>
</defs>
</svg>
