<svg width="24" height="25" viewBox="0 0 24 25" fill="none" xmlns="http://www.w3.org/2000/svg">
<path d="M2.49987 12.1562V12.1543C2.49987 9.63474 3.50076 7.21838 5.28235 5.43678C6.16451 4.55463 7.21178 3.85486 8.36437 3.37744C9.51697 2.90002 10.7523 2.6543 11.9999 2.6543C14.5194 2.6543 16.9358 3.65519 18.7174 5.43678C20.499 7.21838 21.4999 9.63474 21.4999 12.1543C21.4999 14.6739 20.499 17.0902 18.7174 18.8718C16.9358 20.6534 14.5194 21.6543 11.9999 21.6543H2.99987H2.98934L2.97883 21.6547C2.87983 21.6589 2.78183 21.6336 2.69726 21.5819C2.61513 21.5318 2.54928 21.4591 2.50751 21.3725C2.4719 21.2836 2.46257 21.1863 2.48071 21.0921C2.49931 20.9955 2.54595 20.9066 2.61478 20.8365C2.61511 20.8362 2.61544 20.8358 2.61577 20.8355L4.61342 18.8379L4.93464 18.5166L4.64561 18.1662C3.25068 16.4748 2.49156 14.3486 2.49987 12.1562ZM11.9999 20.6543H12.0003C13.9667 20.6528 15.8718 19.9694 17.3909 18.7208C18.91 17.4722 19.9492 15.7354 20.3315 13.8065C20.7137 11.8776 20.4153 9.87577 19.4871 8.14218C18.5589 6.40859 17.0584 5.05045 15.2411 4.29914C13.4239 3.54784 11.4023 3.44986 9.52093 4.02189C7.63954 4.59393 6.01468 5.80059 4.92319 7.43629C3.8317 9.07199 3.3411 11.0355 3.53499 12.9924C3.72885 14.949 4.595 16.7778 5.98588 18.1674C6.07862 18.261 6.13066 18.3875 6.13066 18.5193C6.13066 18.6512 6.07852 18.7778 5.98561 18.8714C5.98549 18.8716 5.98538 18.8717 5.98526 18.8718L5.05631 19.8007L4.20276 20.6543H5.40987H11.9999ZM6.99987 11.6543H16.9999C17.1325 11.6543 17.2597 11.707 17.3534 11.8007C17.4472 11.8945 17.4999 12.0217 17.4999 12.1543C17.4999 12.2869 17.4472 12.4141 17.3534 12.5078C17.2597 12.6016 17.1325 12.6543 16.9999 12.6543H6.99987C6.86726 12.6543 6.74008 12.6016 6.64631 12.5078C6.55254 12.4141 6.49987 12.2869 6.49987 12.1543C6.49987 12.0217 6.55254 11.8945 6.64631 11.8007C6.74008 11.707 6.86726 11.6543 6.99987 11.6543ZM8.99987 15.6543H14.9999C15.1325 15.6543 15.2597 15.707 15.3534 15.8007C15.4472 15.8945 15.4999 16.0217 15.4999 16.1543C15.4999 16.2869 15.4472 16.4141 15.3534 16.5079C15.2597 16.6016 15.1325 16.6543 14.9999 16.6543H8.99987C8.86726 16.6543 8.74008 16.6016 8.64631 16.5079C8.55254 16.4141 8.49987 16.2869 8.49987 16.1543C8.49987 16.0217 8.55254 15.8945 8.64631 15.8007C8.74008 15.707 8.86726 15.6543 8.99987 15.6543ZM14.9999 8.6543H8.99987C8.86726 8.6543 8.74008 8.60162 8.64631 8.50785C8.55254 8.41408 8.49987 8.2869 8.49987 8.1543C8.49987 8.02169 8.55254 7.89451 8.64631 7.80074C8.74008 7.70698 8.86726 7.6543 8.99987 7.6543H14.9999C15.1325 7.6543 15.2597 7.70698 15.3534 7.80074C15.4472 7.89451 15.4999 8.02169 15.4999 8.1543C15.4999 8.2869 15.4472 8.41408 15.3534 8.50785C15.2597 8.60162 15.1325 8.6543 14.9999 8.6543Z" stroke="#6F7070"/>
</svg>
