<svg width="16" height="21" viewBox="0 0 16 21" fill="none" xmlns="http://www.w3.org/2000/svg">
<path d="M15.44 6.86398V6.90612L15.4661 6.98368C15.4817 7.03 15.493 7.07762 15.5 7.12595V7.12611V7.12633V7.12654V7.12675V7.12695V7.12716V7.12737V7.12757V7.12778V7.12798V7.12818V7.12839V7.12859V7.12879V7.12898V7.12918V7.12938V7.12957V7.12977V7.12996V7.13015V7.13034V7.13053V7.13072V7.13091V7.1311V7.13128V7.13147V7.13165V7.13184V7.13202V7.1322V7.13238V7.13256V7.13274V7.13291V7.13309V7.13327V7.13344V7.13361V7.13379V7.13396V7.13413V7.1343V7.13447V7.13463V7.1348V7.13496V7.13513V7.13529V7.13546V7.13562V7.13578V7.13594V7.1361V7.13626V7.13641V7.13657V7.13673V7.13688V7.13703V7.13719V7.13734V7.13749V7.13764V7.13779V7.13794V7.13808V7.13823V7.13838V7.13852V7.13867V7.13881V7.13895V7.13909V7.13923V7.13937V7.13951V7.13965V7.13978V7.13992V7.14006V7.14019V7.14032V7.14046V7.14059V7.14072V7.14085V7.14098V7.14111V7.14123V7.14136V7.14149V7.14161V7.14174V7.14186V7.14198V7.14211V7.14223V7.14235V7.14247V7.14259V7.1427V7.14282V7.14294V7.14305V7.14317V7.14328V7.14339V7.14351V7.14362V7.14373V7.14384V7.14395V7.14406V7.14416V7.14427V7.14438V7.14448V7.14459V7.14469V7.1448V7.1449V7.145V7.1451V7.1452V7.1453V7.1454V7.1455V7.1456V7.14569V7.14579V7.14588V7.14598V7.14607V7.14616V7.14626V7.14635V7.14644V7.14653V7.14662V7.14671V7.1468V7.14688V7.14697V7.14706V7.14714V7.14723V7.14731V7.1474V7.14748V7.14756V7.14764V7.14772V7.1478V7.14788V7.14796V7.14804V7.14812V7.14819V7.14827V7.14835V7.14842V7.1485V7.14857V7.14864V7.14871V7.14879V7.14886V7.14893V7.149V7.14907V7.14914V7.1492V7.14927V7.14934V7.14941V7.14947V7.14954V7.1496V7.14967V7.14973V7.14979V7.14985V7.14992V7.14998V7.15004V7.1501V7.15016V7.15022V7.15027V7.15033V7.15039V7.15045V7.1505V7.15056V7.15061V7.15067V7.15072V7.15077V7.15083V7.15088V7.15093V7.15098V7.15103V7.15108V7.15113V7.15118V7.15123V7.15128V7.15133V7.15137V7.15142V7.15147V7.15151V7.15156V7.1516V7.15165V7.15169V7.15173V7.15178V7.15182V7.15186V7.1519V7.15194V7.15198V7.15202V7.15206V7.1521V7.15214V7.15218V7.15221V7.15225V7.15229V7.15233V7.15236V7.1524V7.15243V7.15247V7.1525V7.15253V7.15257V7.1526V7.15263V7.15266V7.1527V7.15273V7.15276V7.15279V7.15282V7.15285V7.15288V7.15291V7.15293V7.15296V7.15299V7.15302V7.15304V7.15307V7.1531V7.15312V7.15315V7.15317V7.1532V7.15322V7.15324V7.15327V7.15329V7.15331V7.15334V7.15336V7.15338V7.1534V7.15342V7.15344V7.15346V7.15349V7.1535V7.15352V7.15354V7.15356V7.15358V7.1536V7.15362V7.15363V7.15365V7.15367V7.15369V7.1537V7.15372V7.15373V7.15375V7.15376V7.15378V7.15379V7.15381V7.15382V7.15384V7.15385V7.15386V7.15388V7.15389V7.1539V7.15391V7.15393V7.15394V7.15395V7.15396V7.15397V7.15398V7.15399V7.154V7.15401V7.15402V7.15403V7.15404V7.15405V7.15406V7.15407V7.15408V7.15408V7.15409V7.1541V7.15411V7.15412V7.15412V7.15413V7.15414V7.15416V7.15417V7.15418V7.15419V7.1542V7.15421V7.15422V7.15423V7.15423V7.15424V7.15425V7.15426V7.15427V7.15427V7.15428V7.15429V7.1543V17.1543C15.5 17.8173 15.2366 18.4532 14.7678 18.9221C14.2989 19.3909 13.663 19.6543 13 19.6543H3C2.33696 19.6543 1.70107 19.3909 1.23223 18.9221C0.763392 18.4532 0.5 17.8173 0.5 17.1543V3.1543C0.5 2.49126 0.763392 1.85537 1.23223 1.38653C1.70107 0.917689 2.33696 0.654297 3 0.654297H9.01287C9.05443 0.662163 9.09446 0.676928 9.13126 0.698032L9.28026 0.783483L9.35283 0.773174C9.37017 0.785836 9.38681 0.799484 9.40266 0.81406L15.3902 6.80164C15.4083 6.82126 15.4249 6.84209 15.44 6.86398ZM10.3536 3.21074L9.5 2.35719V3.5643V5.1543C9.5 5.55212 9.65804 5.93365 9.93934 6.21496C10.2206 6.49626 10.6022 6.6543 11 6.6543H12.59H13.7971L12.9436 5.80074L10.3536 3.21074ZM8.5 2.1543V1.6543H8H3C2.60217 1.6543 2.22064 1.81233 1.93934 2.09364C1.65804 2.37494 1.5 2.75647 1.5 3.1543V17.1543C1.5 17.5521 1.65804 17.9337 1.93934 18.215C2.22065 18.4963 2.60218 18.6543 3 18.6543H13C13.3978 18.6543 13.7794 18.4963 14.0607 18.215C14.342 17.9337 14.5 17.5521 14.5 17.1543V8.1543V7.6543H14H11C10.337 7.6543 9.70107 7.3909 9.23223 6.92206C8.76339 6.45322 8.5 5.81734 8.5 5.1543V2.1543ZM6.64508 14.0965L6.99917 14.4533L7.35409 14.0973L10.6436 10.7979C10.6436 10.7978 10.6437 10.7977 10.6437 10.7977C10.7383 10.7032 10.8664 10.6502 11 10.6502C11.1337 10.6502 11.2619 10.7033 11.3564 10.7979C11.451 10.8924 11.5041 11.0206 11.5041 11.1543C11.5041 11.288 11.451 11.4162 11.3564 11.5107L7.35644 15.5107L7.355 15.5122C7.30852 15.5591 7.25321 15.5963 7.19229 15.6216C7.13136 15.647 7.06601 15.6601 7 15.6601C6.93399 15.6601 6.86864 15.647 6.80771 15.6216C6.74679 15.5963 6.69148 15.5591 6.645 15.5122L6.64355 15.5107L4.64355 13.5107C4.54902 13.4162 4.49591 13.288 4.49591 13.1543C4.49591 13.0206 4.54902 12.8924 4.64355 12.7979C4.73809 12.7033 4.86631 12.6502 5 12.6502C5.13347 12.6502 5.26148 12.7031 5.35597 12.7974C5.35613 12.7975 5.35629 12.7977 5.35645 12.7979L6.64508 14.0965Z" stroke="#0EADE5"/>
</svg>
