<svg width="70" height="70" viewBox="0 0 70 70" fill="none" xmlns="http://www.w3.org/2000/svg">
<g clip-path="url(#clip0_1608_4331)">
<path d="M30.6256 56.875H19.6881C17.5169 56.8723 15.3711 56.4079 13.3931 55.5127C11.4151 54.6174 9.65003 53.3117 8.21512 51.6822C6.78022 50.0527 5.70825 48.1368 5.07034 46.0614C4.43243 43.986 4.24317 41.7987 4.51512 39.6446C4.78707 37.4905 5.51401 35.4188 6.6477 33.5671C7.7814 31.7154 9.29592 30.1259 11.0908 28.9042C12.8856 27.6825 14.9198 26.8564 17.0583 26.4808C19.1967 26.1053 21.3906 26.1887 23.4944 26.7258" stroke="#AFAFAF" stroke-width="3" stroke-linecap="round" stroke-linejoin="round"/>
<path d="M32.8125 43.75L41.5625 35L50.3125 43.75" stroke="#AFAFAF" stroke-width="3" stroke-linecap="round" stroke-linejoin="round"/>
<path d="M41.5625 56.875V35" stroke="#AFAFAF" stroke-width="3" stroke-linecap="round" stroke-linejoin="round"/>
<path d="M21.875 35.0002C21.8759 31.0566 22.9429 27.1866 24.9631 23.7997C26.9832 20.4128 29.8814 17.635 33.3509 15.7602C36.8205 13.8855 40.7322 12.9835 44.6724 13.1498C48.6125 13.3161 52.4344 14.5444 55.7336 16.7048C59.0328 18.8652 61.6866 21.8773 63.4142 25.4224C65.1419 28.9675 65.879 32.9137 65.5476 36.8433C65.2163 40.773 63.8288 44.54 61.532 47.7458C59.2351 50.9515 56.1144 53.4767 52.5 55.0541" stroke="#AFAFAF" stroke-width="3" stroke-linecap="round" stroke-linejoin="round"/>
</g>
<defs>
<clipPath id="clip0_1608_4331">
<rect width="70" height="70" fill="white"/>
</clipPath>
</defs>
</svg>
