<svg width="11" height="10" viewBox="0 0 11 10" fill="none" xmlns="http://www.w3.org/2000/svg">
<path d="M2.78003 4.52262C2.78003 4.97662 3.0564 5.36861 3.45411 5.48174C3.7522 6.30924 4.53954 6.86408 5.4186 6.86408C6.29767 6.86408 7.08501 6.30924 7.38306 5.48174C7.78081 5.36861 8.05718 4.97678 8.05718 4.52262C8.05718 4.21615 7.92565 3.92395 7.70442 3.73652L7.73687 3.56229C7.73687 3.49738 7.73239 3.434 7.72727 3.37047L7.72313 3.31982L7.67991 3.34666C7.07696 3.72061 6.10013 3.88787 5.39956 3.88787C4.7189 3.88787 3.76099 3.72744 3.15538 3.36896L3.11126 3.35744L3.10759 3.40732C3.10384 3.45873 3.10009 3.50998 3.10062 3.56807L3.13249 3.73699C2.91144 3.92441 2.78003 4.21646 2.78003 4.52262Z" fill="#0077FF"/>
<path d="M7.45605 7.44273C7.26786 7.32613 7.09015 7.21604 6.94624 7.1023L6.92794 7.08789L6.90896 7.10139C6.77444 7.19736 6.2995 7.69064 5.91241 8.10084L5.69864 7.68535L5.80991 7.60574V7.19844H5.02729V7.60574L5.13856 7.68535L4.92472 8.101C4.53751 7.69066 4.06233 7.19738 3.92796 7.10139L3.90896 7.08789L3.89065 7.1023C3.74675 7.21604 3.56899 7.32613 3.38085 7.44273C2.79435 7.80621 2.12964 8.21807 2.12964 8.95336C2.12964 9.38781 3.14997 9.99982 5.41847 9.99982C7.68694 9.99982 8.7073 9.38781 8.7073 8.95336C8.70726 8.21807 8.04251 7.80621 7.45605 7.44273Z" fill="#0077FF"/>
<path d="M3.07164 2.57469C3.07164 2.93893 4.16769 3.40098 5.39953 3.40098C6.63136 3.40098 7.72742 2.93895 7.72742 2.57469V2.07262L8.57709 1.72688V2.81988C8.4781 2.83535 8.40201 2.92117 8.40201 3.02398C8.40201 3.11193 8.45994 3.18867 8.54345 3.21641L8.37445 4.33186H9.16945L9.00048 3.21641C9.08388 3.18865 9.14173 3.11191 9.14173 3.02398C9.14173 2.92057 9.06519 2.83459 8.96568 2.81957L8.96158 1.50713C8.96855 1.495 8.96855 1.4824 8.96855 1.47574C8.96855 1.46906 8.96855 1.45664 8.96564 1.45664H8.9656C8.96048 1.40887 8.92632 1.36656 8.87654 1.34625L8.65142 1.25406L5.72556 0.0632422C5.62419 0.0218359 5.51148 0 5.39953 0C5.28757 0 5.17488 0.0218359 5.07355 0.0632422L1.9225 1.34641C1.86658 1.3693 1.83044 1.4201 1.83044 1.47574C1.83044 1.53125 1.86654 1.58205 1.92255 1.60523L3.07164 2.07258V2.57469Z" fill="#0077FF"/>
</svg>
