<svg width="13" height="9" viewBox="0 0 13 9" fill="none" xmlns="http://www.w3.org/2000/svg">
<path d="M0.179943 3.63003L1.99059 4.50223V5.95416C1.99059 6.07627 2.06054 6.18759 2.17054 6.2406L5.63445 7.90917C5.67749 7.92988 5.72464 7.94064 5.77243 7.94064H6.35451C6.4023 7.94064 6.44943 7.92988 6.49251 7.90917L9.94684 6.24517C10.0138 6.21287 10.0673 6.15819 10.0982 6.09056C10.1025 6.08103 10.1067 6.07139 10.1108 6.06172C10.1277 6.02225 10.1364 5.97975 10.1364 5.93684V4.5022L10.6303 4.2643V6.23317C10.5234 6.30441 10.441 6.41116 10.4011 6.54115L10.1201 7.45681C10.0855 7.56974 10.0864 7.68887 10.1229 7.80123L10.3835 8.60438C10.4578 8.83346 10.6695 8.99234 10.9102 8.99975C10.9118 8.9998 10.9133 8.99982 10.9149 8.99985L10.9229 8.99997C10.9245 9 10.9262 9 10.9279 9C11.1645 9 11.3735 8.85772 11.4602 8.63749L11.7615 7.87265C11.808 7.75471 11.8139 7.62279 11.7781 7.50119L11.4971 6.54735C11.458 6.41436 11.3749 6.30517 11.2661 6.23279V3.95805L11.9521 3.62761C12.0621 3.57461 12.132 3.46331 12.132 3.34118V3.08799C12.132 2.96588 12.0621 2.85456 11.9521 2.80155L6.20142 0.0314933C6.11421 -0.0104978 6.01265 -0.0104978 5.92547 0.0314933L0.179943 2.79914C0.0699427 2.85212 0 2.96344 0 3.08557V3.34362C0 3.46573 0.0699427 3.57703 0.179943 3.63003ZM10.9336 8.23969L10.7339 7.62414L10.9469 6.92993L11.162 7.65997L10.9336 8.23969ZM9.5005 5.75443L6.28192 7.30484H5.84499L2.62644 5.75443V4.80855L5.92549 6.39773C5.96908 6.41873 6.01626 6.42921 6.06347 6.42921C6.11067 6.42921 6.15783 6.41873 6.20145 6.39773L9.50053 4.80858L9.5005 5.75443ZM6.06344 0.670795L11.3443 3.2146L9.72256 3.99579C9.70827 4.00032 9.69418 4.00564 9.68044 4.01222L6.06344 5.75458L2.44647 4.01222C2.43276 4.00564 2.41867 4.00032 2.4044 3.99579L0.782646 3.21457L6.06344 0.670795Z" fill="#96969E"/>
</svg>
