<svg width="22" height="22" viewBox="0 0 22 22" fill="none" xmlns="http://www.w3.org/2000/svg">
<path fill-rule="evenodd" clip-rule="evenodd" d="M20.0752 17.5282C20.0851 17.5749 20.0909 17.6221 20.0927 17.6698L20.0932 17.7001V18.6168C20.0932 19.6293 18.2464 20.4501 15.9682 20.4501C13.7128 20.4501 11.8802 19.6456 11.8438 18.6471L11.8432 18.6168V17.7001L11.8438 17.6698C11.8455 17.6222 11.8513 17.5751 11.8611 17.5285C12.1137 17.7184 12.4213 17.8935 12.7776 18.0434C13.6095 18.3933 14.7311 18.6168 15.9682 18.6168C17.2544 18.6168 18.4156 18.3749 19.2573 18.0008C19.572 17.861 19.8458 17.7008 20.0752 17.5282ZM10.0099 1.75928L18.2599 6.34261L18.2599 9.7252C17.5842 9.55172 16.8025 9.45011 15.9682 9.45011C14.7119 9.45011 13.5747 9.68108 12.7358 10.0539C11.5871 10.5645 11.0023 11.3452 10.9284 12.1354L10.9263 12.1593L10.9315 19.5806L10.0099 20.0926L1.75989 15.5093V6.34261L10.0099 1.75928ZM20.0752 14.7782C20.0851 14.8249 20.0909 14.8721 20.0927 14.9198L20.0932 14.9501V15.8668C20.0932 16.8793 18.2464 17.7001 15.9682 17.7001C13.7128 17.7001 11.8802 16.8956 11.8438 15.8971L11.8432 15.8668V14.9501L11.8438 14.9198C11.8455 14.8722 11.8513 14.8251 11.8611 14.7785C12.1137 14.9684 12.4213 15.1435 12.7776 15.2934C13.6095 15.6433 14.7311 15.8668 15.9682 15.8668C17.2544 15.8668 18.4156 15.6249 19.2573 15.2508C19.572 15.111 19.8458 14.9508 20.0752 14.7782ZM7.25984 10.3147L7.25989 16.5279L9.09322 17.5464V11.3332L7.25984 10.3147ZM3.59322 8.27772V14.4908L5.42654 15.5093V9.29621L3.59322 8.27772ZM15.9682 10.3668C18.2236 10.3668 20.0562 11.1713 20.0927 12.1698L20.0932 12.2001V13.1168C20.0932 14.1293 18.2464 14.9501 15.9682 14.9501C13.7128 14.9501 11.8802 14.1456 11.8438 13.1471L11.8432 13.1168V12.2001L11.8493 12.0995C11.9668 11.1338 13.766 10.3668 15.9682 10.3668ZM13.6189 5.80131L8.2229 8.81281L10.0099 9.80558L15.4182 6.80094L13.6189 5.80131ZM10.0099 3.79631L4.60155 6.80094L6.3917 7.79549L11.7876 4.78398L10.0099 3.79631Z" fill="#96969E"/>
</svg>
