<svg width="20" height="20" viewBox="0 0 20 20" fill="none" xmlns="http://www.w3.org/2000/svg">
<path fill-rule="evenodd" clip-rule="evenodd" d="M3.33333 2H6.66667C7.40305 2 8 2.59695 8 3.33333V6.66667C8 7.40305 7.40305 8 6.66667 8H3.33333C2.59695 8 2 7.40305 2 6.66667V3.33333C2 2.59695 2.59695 2 3.33333 2ZM3.33333 9.33333H6.66667C7.40305 9.33333 8 9.93027 8 10.6667V16.6667C8 17.4031 7.40305 18 6.66667 18H3.33333C2.59695 18 2 17.4031 2 16.6667V10.6667C2 9.93027 2.59695 9.33333 3.33333 9.33333ZM10.6667 2H16.6667C17.4031 2 18 2.59695 18 3.33333V10.6667C18 11.4031 17.4031 12 16.6667 12H10.6667C9.93027 12 9.33333 11.4031 9.33333 10.6667V3.33333C9.33333 2.59695 9.93027 2 10.6667 2ZM10.6667 13.3333H16.6667C17.4031 13.3333 18 13.9303 18 14.6667V16.6667C18 17.4031 17.4031 18 16.6667 18H10.6667C9.93027 18 9.33333 17.4031 9.33333 16.6667V14.6667C9.33333 13.9303 9.93027 13.3333 10.6667 13.3333Z" fill="white"/>
</svg>
