<svg width="24" height="25" viewBox="0 0 24 25" fill="none" xmlns="http://www.w3.org/2000/svg">
<path d="M12 2.69727C10.0222 2.69727 8.08879 3.28376 6.4443 4.38257C4.79981 5.48138 3.51809 7.04317 2.76121 8.87043C2.00433 10.6977 1.8063 12.7084 2.19215 14.6482C2.578 16.588 3.53041 18.3698 4.92894 19.7683C6.32746 21.1669 8.10929 22.1193 10.0491 22.5051C11.9889 22.891 13.9996 22.6929 15.8268 21.9361C17.6541 21.1792 19.2159 19.8975 20.3147 18.253C21.4135 16.6085 22 14.6751 22 12.6973C22 11.384 21.7413 10.0837 21.2388 8.87043C20.7363 7.65718 19.9997 6.55478 19.0711 5.6262C18.1425 4.69761 17.0401 3.96102 15.8268 3.45847C14.6136 2.95592 13.3132 2.69727 12 2.69727ZM12 20.6973C10.4178 20.6973 8.87104 20.2281 7.55544 19.349C6.23985 18.47 5.21447 17.2205 4.60897 15.7587C4.00347 14.2969 3.84504 12.6884 4.15372 11.1365C4.4624 9.5847 5.22433 8.15923 6.34315 7.04041C7.46197 5.92159 8.88743 5.15967 10.4393 4.85098C11.9911 4.5423 13.5997 4.70073 15.0615 5.30623C16.5233 5.91173 17.7727 6.93711 18.6518 8.2527C19.5308 9.5683 20 11.115 20 12.6973C20 14.819 19.1572 16.8538 17.6569 18.3541C16.1566 19.8544 14.1217 20.6973 12 20.6973ZM16 11.6973H8C7.73479 11.6973 7.48043 11.8026 7.2929 11.9902C7.10536 12.1777 7 12.432 7 12.6973C7 12.9625 7.10536 13.2168 7.2929 13.4044C7.48043 13.5919 7.73479 13.6973 8 13.6973H16C16.2652 13.6973 16.5196 13.5919 16.7071 13.4044C16.8946 13.2168 17 12.9625 17 12.6973C17 12.432 16.8946 12.1777 16.7071 11.9902C16.5196 11.8026 16.2652 11.6973 16 11.6973Z" fill="#D1293D"/>
</svg>
