<svg width="21" height="20" viewBox="0 0 21 20" fill="none" xmlns="http://www.w3.org/2000/svg">
<path d="M8.83333 14.9998C9.05435 14.9998 9.26631 14.912 9.42259 14.7558C9.57887 14.5995 9.66667 14.3875 9.66667 14.1665V9.1665C9.66667 8.94549 9.57887 8.73353 9.42259 8.57725C9.26631 8.42097 9.05435 8.33317 8.83333 8.33317C8.61232 8.33317 8.40036 8.42097 8.24408 8.57725C8.0878 8.73353 8 8.94549 8 9.1665V14.1665C8 14.3875 8.0878 14.5995 8.24408 14.7558C8.40036 14.912 8.61232 14.9998 8.83333 14.9998ZM17.1667 4.99984H13.8333V4.1665C13.8333 3.50346 13.5699 2.86758 13.1011 2.39874C12.6323 1.9299 11.9964 1.6665 11.3333 1.6665H9.66667C9.00363 1.6665 8.36774 1.9299 7.8989 2.39874C7.43006 2.86758 7.16667 3.50346 7.16667 4.1665V4.99984H3.83333C3.61232 4.99984 3.40036 5.08763 3.24408 5.24391C3.0878 5.4002 3 5.61216 3 5.83317C3 6.05418 3.0878 6.26615 3.24408 6.42243C3.40036 6.57871 3.61232 6.6665 3.83333 6.6665H4.66667V15.8332C4.66667 16.4962 4.93006 17.1321 5.3989 17.6009C5.86774 18.0698 6.50363 18.3332 7.16667 18.3332H13.8333C14.4964 18.3332 15.1323 18.0698 15.6011 17.6009C16.0699 17.1321 16.3333 16.4962 16.3333 15.8332V6.6665H17.1667C17.3877 6.6665 17.5996 6.57871 17.7559 6.42243C17.9122 6.26615 18 6.05418 18 5.83317C18 5.61216 17.9122 5.4002 17.7559 5.24391C17.5996 5.08763 17.3877 4.99984 17.1667 4.99984ZM8.83333 4.1665C8.83333 3.94549 8.92113 3.73353 9.07741 3.57725C9.23369 3.42097 9.44565 3.33317 9.66667 3.33317H11.3333C11.5543 3.33317 11.7663 3.42097 11.9226 3.57725C12.0789 3.73353 12.1667 3.94549 12.1667 4.1665V4.99984H8.83333V4.1665ZM14.6667 15.8332C14.6667 16.0542 14.5789 16.2661 14.4226 16.4224C14.2663 16.5787 14.0543 16.6665 13.8333 16.6665H7.16667C6.94565 16.6665 6.73369 16.5787 6.57741 16.4224C6.42113 16.2661 6.33333 16.0542 6.33333 15.8332V6.6665H14.6667V15.8332ZM12.1667 14.9998C12.3877 14.9998 12.5996 14.912 12.7559 14.7558C12.9122 14.5995 13 14.3875 13 14.1665V9.1665C13 8.94549 12.9122 8.73353 12.7559 8.57725C12.5996 8.42097 12.3877 8.33317 12.1667 8.33317C11.9457 8.33317 11.7337 8.42097 11.5774 8.57725C11.4211 8.73353 11.3333 8.94549 11.3333 9.1665V14.1665C11.3333 14.3875 11.4211 14.5995 11.5774 14.7558C11.7337 14.912 11.9457 14.9998 12.1667 14.9998Z" fill="#0B0B0B"/>
</svg>
