<svg width="10" height="10" viewBox="0 0 10 10" fill="none" xmlns="http://www.w3.org/2000/svg">
<path fill-rule="evenodd" clip-rule="evenodd" d="M3.11301 0.880447C2.77564 0.924884 2.59699 1.00617 2.46974 1.13083C2.34249 1.25551 2.25953 1.43053 2.21417 1.76107C2.16748 2.10131 2.16675 2.55226 2.16675 3.19885V6.76907C2.32869 6.65819 2.51122 6.57382 2.70799 6.52219C2.92806 6.4644 3.18469 6.46448 3.56076 6.46461H8.83341V3.19885C8.83341 2.55226 8.83266 2.10131 8.786 1.76106C8.74062 1.43053 8.65766 1.25551 8.53041 1.13083C8.40316 1.00617 8.22454 0.924884 7.88716 0.880447C7.53987 0.834701 7.07958 0.833984 6.41962 0.833984H4.58054C3.92058 0.833984 3.4603 0.834701 3.11301 0.880447ZM3.31617 2.7484C3.31617 2.56182 3.47056 2.41056 3.661 2.41056H7.33916C7.52962 2.41056 7.684 2.56182 7.684 2.7484C7.684 2.93498 7.52962 3.08624 7.33916 3.08624H3.661C3.47056 3.08624 3.31617 2.93498 3.31617 2.7484ZM3.661 3.98714C3.47056 3.98714 3.31617 4.13839 3.31617 4.32498C3.31617 4.51157 3.47056 4.66282 3.661 4.66282H5.95983C6.15029 4.66282 6.30466 4.51157 6.30466 4.32498C6.30466 4.13839 6.15029 3.98714 5.95983 3.98714H3.661Z" fill="#96969E"/>
<path d="M3.61391 7.13867H4.12068H5.95974H8.83295C8.83149 7.60976 8.82399 7.96105 8.7859 8.23863C8.74053 8.56917 8.65757 8.74421 8.53032 8.86888C8.40307 8.99355 8.22445 9.0748 7.88707 9.11926C7.53978 9.16501 7.07949 9.16571 6.41953 9.16571H4.58045C3.92049 9.16571 3.4602 9.16501 3.11292 9.11926C2.77555 9.0748 2.5969 8.99355 2.46965 8.86888C2.3424 8.74421 2.25944 8.56917 2.21408 8.23863C2.1969 8.11346 2.18595 7.9733 2.17896 7.81396C2.29202 7.50088 2.55568 7.26005 2.8864 7.17321C3.00689 7.14159 3.16413 7.13867 3.61391 7.13867Z" fill="#96969E"/>
</svg>
