<svg width="21" height="20" viewBox="0 0 21 20" fill="none" xmlns="http://www.w3.org/2000/svg">
<path d="M11.7917 9.16699H8.45833C7.54167 9.16699 6.79167 8.41699 6.79167 7.50033C6.79167 6.58366 7.54167 5.83366 8.45833 5.83366H12.625C13.125 5.83366 13.4583 6.16699 13.4583 6.66699C13.4583 7.16699 13.7917 7.50033 14.2917 7.50033C14.7917 7.50033 15.125 7.16699 15.125 6.66699C15.125 5.25033 14.0417 4.16699 12.625 4.16699H10.9583V2.50033C10.9583 2.00033 10.625 1.66699 10.125 1.66699C9.625 1.66699 9.29167 2.00033 9.29167 2.50033V4.16699H8.45833C6.625 4.16699 5.125 5.66699 5.125 7.50033C5.125 9.33366 6.625 10.8337 8.45833 10.8337H11.7917C12.7083 10.8337 13.4583 11.5837 13.4583 12.5003C13.4583 13.417 12.7083 14.167 11.7917 14.167H7.625C7.125 14.167 6.79167 13.8337 6.79167 13.3337C6.79167 12.8337 6.45833 12.5003 5.95833 12.5003C5.45833 12.5003 5.125 12.8337 5.125 13.3337C5.125 14.7503 6.20833 15.8337 7.625 15.8337H9.29167V17.5003C9.29167 18.0003 9.625 18.3337 10.125 18.3337C10.625 18.3337 10.9583 18.0003 10.9583 17.5003V15.8337H11.7917C13.625 15.8337 15.125 14.3337 15.125 12.5003C15.125 10.667 13.625 9.16699 11.7917 9.16699Z" fill="white"/>
</svg>
