<svg width="21" height="20" viewBox="0 0 21 20" fill="none" xmlns="http://www.w3.org/2000/svg">
<path d="M18.8346 6.03318C18.8353 5.92351 18.8143 5.81479 18.7728 5.71326C18.7313 5.61173 18.6702 5.51938 18.593 5.44152L15.0596 1.90818C14.9818 1.83095 14.8894 1.76985 14.7879 1.72838C14.6864 1.6869 14.5777 1.66588 14.468 1.66652C14.3583 1.66588 14.2496 1.6869 14.1481 1.72838C14.0465 1.76985 13.9542 1.83095 13.8763 1.90818L11.518 4.26652L2.40965 13.3749C2.33241 13.4527 2.27131 13.5451 2.22984 13.6466C2.18837 13.7481 2.16735 13.8568 2.16798 13.9665V17.4999C2.16798 17.7209 2.25578 17.9328 2.41206 18.0891C2.56834 18.2454 2.7803 18.3332 3.00132 18.3332H6.53465C6.65126 18.3395 6.76789 18.3213 6.877 18.2797C6.9861 18.238 7.08524 18.1739 7.16798 18.0915L16.2263 8.98319L18.593 6.66652C18.669 6.58575 18.731 6.49279 18.7763 6.39152C18.7843 6.32509 18.7843 6.25794 18.7763 6.19152C18.7802 6.15273 18.7802 6.11364 18.7763 6.07485L18.8346 6.03318ZM6.19298 16.6665H3.83465V14.3082L12.1096 6.03318L14.468 8.39152L6.19298 16.6665ZM15.643 7.21652L13.2846 4.85818L14.468 3.68318L16.818 6.03318L15.643 7.21652Z" fill="#0B0B0B"/>
</svg>
