<svg width="20" height="16" viewBox="0 0 20 16" fill="none" xmlns="http://www.w3.org/2000/svg">
<path d="M11.5 12.6543V12.1543H11H1C0.867391 12.1543 0.740214 12.1016 0.646446 12.0079C0.552679 11.9141 0.5 11.7869 0.5 11.6543V9.6543C0.5 9.52169 0.552678 9.39451 0.646446 9.30074C0.740215 9.20697 0.867392 9.1543 1 9.1543C1.13261 9.1543 1.25979 9.20697 1.35355 9.30074C1.44732 9.39451 1.5 9.52169 1.5 9.6543V10.6543V11.1543H2H4H4.5V10.6543V3.6543C4.5 2.99126 4.76339 2.35537 5.23223 1.88653C5.70107 1.41769 6.33696 1.1543 7 1.1543H17C17.663 1.1543 18.2989 1.41769 18.7678 1.88653C19.2366 2.35537 19.5 2.99126 19.5 3.6543V11.6543C19.5 11.7869 19.4473 11.9141 19.3536 12.0079C19.2598 12.1016 19.1326 12.1543 19 12.1543H17H16.5V12.6543C16.5 13.3173 16.2366 13.9532 15.7678 14.4221C15.2989 14.8909 14.663 15.1543 14 15.1543C13.337 15.1543 12.7011 14.8909 12.2322 14.4221C11.7634 13.9532 11.5 13.3173 11.5 12.6543ZM6 6.1543H5.5V6.6543V10.6543V11.1543H6H11.78H12.0012L12.15 10.9906C12.3843 10.7328 12.6699 10.5268 12.9885 10.3859C13.3071 10.2449 13.6516 10.1721 14 10.1721C14.3484 10.1721 14.6929 10.2449 15.0115 10.3859C15.3301 10.5268 15.6157 10.7328 15.85 10.9906L15.9988 11.1543H16.22H18H18.5V10.6543V6.6543V6.1543H18H6ZM18 5.1543H18.5V4.6543V3.6543C18.5 3.25647 18.342 2.87494 18.0607 2.59364C17.7794 2.31233 17.3978 2.1543 17 2.1543H7C6.60218 2.1543 6.22064 2.31233 5.93934 2.59364C5.65804 2.87494 5.5 3.25647 5.5 3.6543V4.6543V5.1543H6H18ZM12.7528 11.8209C12.588 12.0676 12.5 12.3576 12.5 12.6543C12.5 13.0521 12.658 13.4337 12.9393 13.715C13.2206 13.9963 13.6022 14.1543 14 14.1543C14.2967 14.1543 14.5867 14.0663 14.8334 13.9015C15.08 13.7367 15.2723 13.5024 15.3858 13.2283C15.4994 12.9542 15.5291 12.6526 15.4712 12.3617C15.4133 12.0707 15.2704 11.8034 15.0607 11.5936C14.8509 11.3839 14.5836 11.241 14.2926 11.1831C14.0017 11.1252 13.7001 11.1549 13.426 11.2685C13.1519 11.382 12.9176 11.5743 12.7528 11.8209Z" stroke="#0EADE5"/>
</svg>
