<svg width="18" height="21" viewBox="0 0 18 21" fill="none" xmlns="http://www.w3.org/2000/svg">
<path d="M16.9317 5.51644L16.9853 5.55026C16.9851 5.56364 16.9853 5.57703 16.986 5.5904C16.9846 5.61266 16.9842 5.63497 16.985 5.65725L16.9688 5.71374V5.78377L16.9688 14.5138L16.9688 14.5148C16.969 14.5997 16.9475 14.6834 16.9064 14.7577C16.8656 14.8316 16.8067 14.8939 16.7352 14.9389C16.7348 14.9392 16.7343 14.9395 16.7338 14.9398L9.33353 19.4854L9.31256 19.4938H9.25145L9.17768 19.5172C9.10686 19.5396 9.03083 19.5396 8.96001 19.5172L8.88624 19.4938H8.82514L8.80492 19.4857L1.34385 14.8698C1.34357 14.8696 1.34329 14.8694 1.34302 14.8692C1.27133 14.8243 1.21224 14.7618 1.17128 14.6877C1.13016 14.6134 1.10868 14.5297 1.10885 14.4448V14.4438V5.71377V5.67734L1.10357 5.6413C1.10089 5.62304 1.10089 5.60449 1.10357 5.58623L1.10885 5.55019V5.51377V5.49109L1.12935 5.47675L1.15103 5.45747L1.22877 5.38837L1.28523 5.34446L8.72727 0.711861C8.76966 0.687324 8.81472 0.667839 8.86153 0.653767H8.89885H8.94029L8.98116 0.646945C9.01604 0.641123 9.05165 0.641123 9.08653 0.646945L9.12741 0.653767H9.16123C9.18497 0.665086 9.20742 0.679071 9.22812 0.695491L9.25103 0.713666L9.27591 0.729046L12.9938 3.02776L12.9959 3.02905L16.9317 5.51644ZM9.26169 1.89843L8.99887 1.73601L8.73604 1.89841L3.13604 5.35841L2.44573 5.78492L3.13706 6.20976L4.92706 7.30976L5.18979 7.47121L5.452 7.30892L11.042 3.84892L11.7294 3.42343L11.0417 2.99843L9.26169 1.89843ZM7.73819 17.7504L8.49885 18.2151V17.3238V10.9738V10.695L8.26176 10.5485L2.76176 7.14847L1.99885 6.67685V7.57377V13.9638V14.2442L2.23819 14.3904L7.73819 17.7504ZM8.74094 9.64212L9.00107 9.79874L9.26 9.64015L14.86 6.21014L15.552 5.78629L14.8623 5.35878L12.9423 4.16878L12.6786 4.00539L12.4151 4.16896L6.82515 7.63896L6.13032 8.07028L6.83094 8.49212L8.74094 9.64212ZM15.7629 14.3584L15.9988 14.2116V13.9338V7.57377V6.67685L15.2359 7.14847L9.73594 10.5485L9.49885 10.695V10.9738V17.3538V18.2535L10.2629 17.7784L15.7629 14.3584Z" stroke="#6F7070"/>
</svg>
