<svg width="52" height="52" viewBox="0 0 52 52" fill="none" xmlns="http://www.w3.org/2000/svg">
<g clip-path="url(#clip0_2232_3356)">
<path d="M32.6515 24.7904L12.0933 21.1626V47.969C12.0933 49.1928 13.0855 50.1861 14.3104 50.1861H49.7841C51.0079 50.1861 52.0012 49.1938 52.0012 47.969V38.0931L32.6515 24.7904Z" fill="#185C37"/>
<path d="M32.6515 1.81396H14.3104C13.0865 1.81396 12.0933 2.80623 12.0933 4.03107V13.907L32.6515 26.0001L43.535 29.6279L52.0002 26.0001V13.907L32.6515 1.81396Z" fill="#21A366"/>
<path d="M12.0933 13.9067H32.6515V25.9998H12.0933V13.9067Z" fill="#107C41"/>
<path opacity="0.1" d="M26.8066 11.4888H12.0933V41.7209H26.8066C28.0294 41.7168 29.0197 40.7266 29.0237 39.5038V13.7049C29.0197 12.4821 28.0294 11.4928 26.8066 11.4888Z" fill="black"/>
<path opacity="0.2" d="M25.598 12.6973H12.0933V42.9304H25.598C26.8208 42.9263 27.8111 41.9361 27.8151 40.7133V14.9144C27.8101 13.6916 26.8198 12.7013 25.598 12.6973Z" fill="black"/>
<path opacity="0.2" d="M25.598 12.6973H12.0933V40.5112H25.598C26.8208 40.5071 27.8111 39.5169 27.8151 38.2941V14.9144C27.8101 13.6916 26.8198 12.7013 25.598 12.6973Z" fill="black"/>
<path opacity="0.2" d="M24.3884 12.6973H12.0933V40.5112H24.3884C25.6112 40.5071 26.6015 39.5169 26.6055 38.2941V14.9144C26.6004 13.6916 25.6112 12.7013 24.3884 12.6973Z" fill="black"/>
<path d="M2.21711 12.6973H24.3882C25.612 12.6973 26.6053 13.6895 26.6053 14.9144V37.0855C26.6053 38.3093 25.613 39.3026 24.3882 39.3026H2.21711C0.992266 39.3026 0 38.3103 0 37.0855V14.9144C0 13.6895 0.992266 12.6973 2.21711 12.6973Z" fill="url(#paint0_linear_2232_3356)"/>
<path d="M6.86572 33.2046L11.5285 25.9795L7.25572 18.7939H10.6926L13.0245 23.3896C13.2398 23.8264 13.3871 24.1504 13.4673 24.3646H13.4978C13.6511 24.0163 13.8126 23.6781 13.9812 23.35L16.4735 18.797H19.6291L15.2477 25.9399L19.7398 33.2057H16.3821L13.6887 28.1621C13.5617 27.9478 13.4541 27.7223 13.3667 27.4887H13.3271C13.2479 27.7172 13.1433 27.9366 13.0153 28.1418L10.2427 33.2067L6.86572 33.2046Z" fill="white"/>
<path d="M49.7829 1.81396H32.6514V13.907H52V4.03107C52 2.80623 51.0078 1.81396 49.7829 1.81396Z" fill="#33C481"/>
<path d="M32.6514 26H52V38.093H32.6514V26Z" fill="#107C41"/>
</g>
<defs>
<linearGradient id="paint0_linear_2232_3356" x1="4.62175" y1="10.9655" x2="21.9829" y2="41.0343" gradientUnits="userSpaceOnUse">
<stop stop-color="#18884F"/>
<stop offset="0.5" stop-color="#117E43"/>
<stop offset="1" stop-color="#0B6631"/>
</linearGradient>
<clipPath id="clip0_2232_3356">
<rect width="52" height="52" fill="white"/>
</clipPath>
</defs>
</svg>
