<svg width="21" height="21" viewBox="0 0 21 21" fill="none" xmlns="http://www.w3.org/2000/svg">
<path d="M17.1673 8.10365C17.1586 8.02709 17.1419 7.95167 17.1173 7.87865V7.80365C17.0773 7.71796 17.0238 7.6392 16.959 7.57031L11.959 2.57031C11.8901 2.50549 11.8113 2.45205 11.7257 2.41198H11.6423C11.5613 2.36865 11.4742 2.33775 11.384 2.32031H6.33398C5.67094 2.32031 5.03506 2.5837 4.56622 3.05255C4.09738 3.52139 3.83398 4.15727 3.83398 4.82031V16.487C3.83398 17.15 4.09738 17.7859 4.56622 18.2547C5.03506 18.7236 5.67094 18.987 6.33398 18.987H14.6673C15.3304 18.987 15.9662 18.7236 16.4351 18.2547C16.9039 17.7859 17.1673 17.15 17.1673 16.487V8.15365C17.1673 8.15365 17.1673 8.15365 17.1673 8.10365ZM12.1673 5.16198L14.3257 7.32031H13.0007C12.7796 7.32031 12.5677 7.23251 12.4114 7.07623C12.2551 6.91995 12.1673 6.70799 12.1673 6.48698V5.16198ZM15.5007 16.487C15.5007 16.708 15.4129 16.92 15.2566 17.0762C15.1003 17.2325 14.8883 17.3203 14.6673 17.3203H6.33398C6.11297 17.3203 5.90101 17.2325 5.74473 17.0762C5.58845 16.92 5.50065 16.708 5.50065 16.487V4.82031C5.50065 4.5993 5.58845 4.38734 5.74473 4.23106C5.90101 4.07478 6.11297 3.98698 6.33398 3.98698H10.5007V6.48698C10.5007 7.15002 10.764 7.78591 11.2329 8.25475C11.7017 8.72359 12.3376 8.98698 13.0007 8.98698H15.5007V16.487ZM11.5757 12.562L11.334 12.812V10.6536C11.334 10.4326 11.2462 10.2207 11.0899 10.0644C10.9336 9.90811 10.7217 9.82031 10.5007 9.82031C10.2796 9.82031 10.0677 9.90811 9.9114 10.0644C9.75512 10.2207 9.66732 10.4326 9.66732 10.6536V12.812L9.42565 12.562C9.26873 12.4051 9.0559 12.3169 8.83398 12.3169C8.61207 12.3169 8.39924 12.4051 8.24232 12.562C8.0854 12.7189 7.99724 12.9317 7.99724 13.1536C7.99724 13.3756 8.0854 13.5884 8.24232 13.7453L9.90898 15.412C9.98824 15.4878 10.0817 15.5473 10.184 15.587C10.2837 15.6311 10.3916 15.6538 10.5007 15.6538C10.6097 15.6538 10.7176 15.6311 10.8173 15.587C10.9196 15.5473 11.0131 15.4878 11.0923 15.412L12.759 13.7453C12.9159 13.5884 13.0041 13.3756 13.0041 13.1536C13.0041 12.9317 12.9159 12.7189 12.759 12.562C12.6021 12.4051 12.3892 12.3169 12.1673 12.3169C11.9454 12.3169 11.7326 12.4051 11.5757 12.562Z" fill="#0B0B0B"/>
</svg>
