<svg width="15" height="18" viewBox="0 0 15 18" fill="none" xmlns="http://www.w3.org/2000/svg">
<path d="M14.1673 6.45C14.1586 6.37344 14.1419 6.29802 14.1173 6.225V6.15C14.0773 6.06431 14.0238 5.98555 13.959 5.91666V5.91666L8.95898 0.916664C8.8901 0.851844 8.81133 0.798398 8.72565 0.758331H8.64232C8.56129 0.715 8.4742 0.684099 8.38398 0.666664H3.33398C2.67094 0.666664 2.03506 0.930056 1.56622 1.3989C1.09738 1.86774 0.833984 2.50362 0.833984 3.16666V14.8333C0.833984 15.4964 1.09738 16.1323 1.56622 16.6011C2.03506 17.0699 2.67094 17.3333 3.33398 17.3333H11.6673C12.3304 17.3333 12.9662 17.0699 13.4351 16.6011C13.9039 16.1323 14.1673 15.4964 14.1673 14.8333V6.5C14.1673 6.5 14.1673 6.5 14.1673 6.45ZM9.16732 3.50833L11.3257 5.66666H10.0007C9.77964 5.66666 9.56768 5.57887 9.4114 5.42259C9.25512 5.26631 9.16732 5.05434 9.16732 4.83333V3.50833ZM12.5007 14.8333C12.5007 15.0543 12.4129 15.2663 12.2566 15.4226C12.1003 15.5789 11.8883 15.6667 11.6673 15.6667H3.33398C3.11297 15.6667 2.90101 15.5789 2.74473 15.4226C2.58845 15.2663 2.50065 15.0543 2.50065 14.8333V3.16666C2.50065 2.94565 2.58845 2.73369 2.74473 2.57741C2.90101 2.42113 3.11297 2.33333 3.33398 2.33333H7.50065V4.83333C7.50065 5.49637 7.76404 6.13226 8.23288 6.6011C8.70172 7.06994 9.33761 7.33333 10.0007 7.33333H12.5007V14.8333ZM8.57565 10.9083L8.33398 11.1583V9C8.33398 8.77898 8.24619 8.56702 8.08991 8.41074C7.93363 8.25446 7.72166 8.16666 7.50065 8.16666C7.27964 8.16666 7.06768 8.25446 6.9114 8.41074C6.75512 8.56702 6.66732 8.77898 6.66732 9V11.1583L6.42565 10.9083C6.26873 10.7514 6.0559 10.6633 5.83398 10.6633C5.61207 10.6633 5.39924 10.7514 5.24232 10.9083C5.0854 11.0653 4.99724 11.2781 4.99724 11.5C4.99724 11.7219 5.0854 11.9347 5.24232 12.0917L6.90898 13.7583C6.98824 13.8342 7.08169 13.8937 7.18398 13.9333C7.28373 13.9774 7.39159 14.0002 7.50065 14.0002C7.60971 14.0002 7.71757 13.9774 7.81732 13.9333C7.91961 13.8937 8.01306 13.8342 8.09232 13.7583L9.75898 12.0917C9.9159 11.9347 10.0041 11.7219 10.0041 11.5C10.0041 11.2781 9.9159 11.0653 9.75898 10.9083C9.60206 10.7514 9.38924 10.6633 9.16732 10.6633C8.9454 10.6633 8.73257 10.7514 8.57565 10.9083V10.9083Z" fill="#0B0B0B"/>
</svg>
