<svg width="20" height="20" viewBox="0 0 20 20" fill="none" xmlns="http://www.w3.org/2000/svg">
<path d="M7.49992 8.33366H8.33325C8.55427 8.33366 8.76623 8.24586 8.92251 8.08958C9.07879 7.9333 9.16659 7.72134 9.16659 7.50033C9.16659 7.27931 9.07879 7.06735 8.92251 6.91107C8.76623 6.75479 8.55427 6.66699 8.33325 6.66699H7.49992C7.2789 6.66699 7.06694 6.75479 6.91066 6.91107C6.75438 7.06735 6.66659 7.27931 6.66659 7.50033C6.66659 7.72134 6.75438 7.9333 6.91066 8.08958C7.06694 8.24586 7.2789 8.33366 7.49992 8.33366V8.33366ZM7.49992 10.0003C7.2789 10.0003 7.06694 10.0881 6.91066 10.2444C6.75438 10.4007 6.66659 10.6126 6.66659 10.8337C6.66659 11.0547 6.75438 11.2666 6.91066 11.4229C7.06694 11.5792 7.2789 11.667 7.49992 11.667H12.4999C12.7209 11.667 12.9329 11.5792 13.0892 11.4229C13.2455 11.2666 13.3333 11.0547 13.3333 10.8337C13.3333 10.6126 13.2455 10.4007 13.0892 10.2444C12.9329 10.0881 12.7209 10.0003 12.4999 10.0003H7.49992ZM16.6666 7.45033C16.6579 7.37377 16.6411 7.29835 16.6166 7.22533V7.15033C16.5765 7.06464 16.5231 6.98588 16.4583 6.91699V6.91699L11.4583 1.91699C11.3894 1.85217 11.3106 1.79873 11.2249 1.75866C11.2 1.75513 11.1748 1.75513 11.1499 1.75866C11.0653 1.71011 10.9718 1.67895 10.8749 1.66699H5.83325C5.17021 1.66699 4.53433 1.93038 4.06549 2.39923C3.59664 2.86807 3.33325 3.50395 3.33325 4.16699V15.8337C3.33325 16.4967 3.59664 17.1326 4.06549 17.6014C4.53433 18.0703 5.17021 18.3337 5.83325 18.3337H14.1666C14.8296 18.3337 15.4655 18.0703 15.9344 17.6014C16.4032 17.1326 16.6666 16.4967 16.6666 15.8337V7.50033C16.6666 7.50033 16.6666 7.50033 16.6666 7.45033ZM11.6666 4.50866L13.8249 6.66699H12.4999C12.2789 6.66699 12.0669 6.57919 11.9107 6.42291C11.7544 6.26663 11.6666 6.05467 11.6666 5.83366V4.50866ZM14.9999 15.8337C14.9999 16.0547 14.9121 16.2666 14.7558 16.4229C14.5996 16.5792 14.3876 16.667 14.1666 16.667H5.83325C5.61224 16.667 5.40028 16.5792 5.244 16.4229C5.08772 16.2666 4.99992 16.0547 4.99992 15.8337V4.16699C4.99992 3.94598 5.08772 3.73402 5.244 3.57774C5.40028 3.42146 5.61224 3.33366 5.83325 3.33366H9.99992V5.83366C9.99992 6.4967 10.2633 7.13259 10.7322 7.60143C11.201 8.07027 11.8369 8.33366 12.4999 8.33366H14.9999V15.8337ZM12.4999 13.3337H7.49992C7.2789 13.3337 7.06694 13.4215 6.91066 13.5777C6.75438 13.734 6.66659 13.946 6.66659 14.167C6.66659 14.388 6.75438 14.6 6.91066 14.7562C7.06694 14.9125 7.2789 15.0003 7.49992 15.0003H12.4999C12.7209 15.0003 12.9329 14.9125 13.0892 14.7562C13.2455 14.6 13.3333 14.388 13.3333 14.167C13.3333 13.946 13.2455 13.734 13.0892 13.5777C12.9329 13.4215 12.7209 13.3337 12.4999 13.3337Z" fill="#0B0B0B"/>
</svg>
