<svg width="28" height="28" viewBox="0 0 28 28" fill="none" xmlns="http://www.w3.org/2000/svg">
<path fill-rule="evenodd" clip-rule="evenodd" d="M7.7105 2.44C9.45959 0.872973 11.6904 0.00752457 14 0C18.7075 0 22.6153 3.63636 23.0405 8.32545C25.8265 8.73455 28 11.1582 28 14.1327C28 17.3982 25.3785 20 22.2023 20H17.5C17.2679 20 17.0454 19.9042 16.8813 19.7337C16.7172 19.5632 16.625 19.332 16.625 19.0909C16.625 18.8498 16.7172 18.6186 16.8813 18.4481C17.0454 18.2776 17.2679 18.1818 17.5 18.1818H22.204C24.4632 18.1818 26.25 16.3418 26.25 14.1327C26.25 11.9218 24.465 10.0818 22.2023 10.0818H21.3273V9.17273C21.329 5.13636 18.074 1.81818 14 1.81818C12.1098 1.82603 10.2845 2.53533 8.85325 3.81818C7.5285 5.00364 6.8355 6.43273 6.8355 7.55455V8.36909L6.05675 8.45818C3.612 8.73636 1.75 10.8218 1.75 13.3055C1.75 15.9727 3.9025 18.1818 6.61675 18.1818H10.5C10.7321 18.1818 10.9546 18.2776 11.1187 18.4481C11.2828 18.6186 11.375 18.8498 11.375 19.0909C11.375 19.332 11.2828 19.5632 11.1187 19.7337C10.9546 19.9042 10.7321 20 10.5 20H6.61675C2.989 20 0 17.0291 0 13.3055C0 10.1 2.2155 7.44545 5.1485 6.77273C5.39875 5.20364 6.37 3.64 7.7105 2.44Z" fill="#0B0C0B"/>
<path fill-rule="evenodd" clip-rule="evenodd" d="M13.3933 6.93405C13.4729 6.8494 13.5674 6.78223 13.6715 6.73641C13.7757 6.69058 13.8873 6.66699 14 6.66699C14.1127 6.66699 14.2243 6.69058 14.3285 6.73641C14.4326 6.78223 14.5271 6.8494 14.6067 6.93405L19.7487 12.3882C19.9096 12.5588 20 12.7903 20 13.0317C20 13.2731 19.9096 13.5046 19.7487 13.6753C19.5878 13.846 19.3695 13.9419 19.1419 13.9419C18.9144 13.9419 18.6961 13.846 18.5352 13.6753L14.857 9.772V25.758C14.857 25.9991 14.7667 26.2303 14.606 26.4007C14.4453 26.5712 14.2273 26.667 14 26.667C13.7727 26.667 13.5547 26.5712 13.394 26.4007C13.2333 26.2303 13.143 25.9991 13.143 25.758V9.772L9.46482 13.6753C9.3039 13.846 9.08565 13.9419 8.85807 13.9419C8.6305 13.9419 8.41224 13.846 8.25132 13.6753C8.0904 13.5046 8 13.2731 8 13.0317C8 12.7903 8.0904 12.5588 8.25132 12.3882L13.3933 6.93405Z" fill="#0B0C0B"/>
</svg>
