<svg width="17" height="17" viewBox="0 0 17 17" fill="none" xmlns="http://www.w3.org/2000/svg">
<path d="M14.3327 0.166016H2.66602C2.00297 0.166016 1.36709 0.429408 0.898249 0.898249C0.429408 1.36709 0.166016 2.00297 0.166016 2.66602V3.64102C0.165896 3.98514 0.236821 4.32557 0.374349 4.64102V4.69102C0.492082 4.95849 0.658843 5.20157 0.866016 5.40768L5.99935 10.5077V15.9993C5.99907 16.141 6.03488 16.2803 6.10341 16.4043C6.17194 16.5282 6.27092 16.6326 6.39102 16.7077C6.52363 16.7899 6.67666 16.8332 6.83268 16.8327C6.96313 16.8319 7.09158 16.8005 7.20768 16.741L10.541 15.0743C10.6784 15.0051 10.794 14.8991 10.8749 14.7682C10.9558 14.6373 10.9989 14.4866 10.9993 14.3327V10.5077L16.0993 5.40768C16.3065 5.20157 16.4733 4.95849 16.591 4.69102V4.64102C16.74 4.32804 16.8223 3.9875 16.8327 3.64102V2.66602C16.8327 2.00297 16.5693 1.36709 16.1004 0.898249C15.6316 0.429408 14.9957 0.166016 14.3327 0.166016ZM9.57435 9.57435C9.49711 9.65222 9.43601 9.74456 9.39454 9.84609C9.35307 9.94763 9.33205 10.0563 9.33268 10.166V13.816L7.66602 14.6493V10.166C7.66665 10.0563 7.64563 9.94763 7.60416 9.84609C7.56269 9.74456 7.50158 9.65222 7.42435 9.57435L3.00768 5.16602H13.991L9.57435 9.57435ZM15.166 3.49935H1.83268V2.66602C1.83268 2.445 1.92048 2.23304 2.07676 2.07676C2.23304 1.92048 2.445 1.83268 2.66602 1.83268H14.3327C14.5537 1.83268 14.7657 1.92048 14.9219 2.07676C15.0782 2.23304 15.166 2.445 15.166 2.66602V3.49935Z" fill="#0B0B0B"/>
</svg>
