<svg width="12" height="12" viewBox="0 0 12 12" fill="none" xmlns="http://www.w3.org/2000/svg">
<g clip-path="url(#clip0_962_7940)">
<path d="M1.10831 2.68426C1.05408 2.62567 1.01834 2.5529 1.0054 2.47477C0.992462 2.39663 1.00289 2.31649 1.03542 2.24405C1.06796 2.17162 1.12119 2.11001 1.18868 2.06669C1.25617 2.02337 1.335 2.00021 1.41563 2H10.5833C10.664 2.00001 10.743 2.02303 10.8107 2.06627C10.8783 2.10952 10.9317 2.17111 10.9644 2.24359C10.997 2.31606 11.0075 2.39628 10.9946 2.47451C10.9817 2.55274 10.946 2.62561 10.8917 2.68426L7.24962 6.50038V9.49978C7.24966 9.56715 7.23276 9.63349 7.20041 9.69291C7.16806 9.75233 7.12127 9.80298 7.06418 9.84038L5.39733 10.9312C5.33463 10.9723 5.26176 10.9959 5.18648 10.9995C5.1112 11.0031 5.03632 10.9866 4.96983 10.9518C4.90334 10.917 4.84771 10.8651 4.80889 10.8016C4.77006 10.7382 4.74948 10.6656 4.74934 10.5916V6.50038L1.10831 2.68426Z" fill="#2C2D2D"/>
</g>
<defs>
<clipPath id="clip0_962_7940">
<rect width="12" height="12" fill="white"/>
</clipPath>
</defs>
</svg>
