<svg width="40" height="40" viewBox="0 0 40 40" fill="none" xmlns="http://www.w3.org/2000/svg">
<circle cx="20" cy="20" r="20" fill="#E4E4E4"/>
<path d="M25.0002 16.5916C24.9752 16.5916 24.9585 16.5916 24.9335 16.5916H24.8918C23.3168 16.5416 22.1418 15.3249 22.1418 13.8249C22.1418 12.2916 23.3918 11.0499 24.9168 11.0499C26.4418 11.0499 27.6918 12.2999 27.6918 13.8249C27.6835 15.3333 26.5085 16.5499 25.0085 16.5999C25.0085 16.5916 25.0085 16.5916 25.0002 16.5916ZM24.9168 12.2916C24.0752 12.2916 23.3918 12.9749 23.3918 13.8166C23.3918 14.6416 24.0335 15.3083 24.8585 15.3416C24.8668 15.3333 24.9335 15.3333 25.0085 15.3416C25.8168 15.2999 26.4418 14.6333 26.4502 13.8166C26.4502 12.9749 25.7668 12.2916 24.9168 12.2916Z" fill="#858686"/>
<path d="M25.0087 22.7333C24.6837 22.7333 24.3587 22.7083 24.0337 22.65C23.6921 22.5917 23.4671 22.2667 23.5254 21.925C23.5837 21.5833 23.9087 21.3583 24.2504 21.4167C25.2754 21.5917 26.3587 21.4001 27.0837 20.9168C27.4754 20.6584 27.6837 20.3333 27.6837 20.0083C27.6837 19.6833 27.4671 19.3667 27.0837 19.1083C26.3587 18.625 25.2587 18.4333 24.2254 18.6167C23.8837 18.6833 23.5587 18.45 23.5004 18.1084C23.4421 17.7667 23.6671 17.4417 24.0087 17.3834C25.3671 17.1417 26.7754 17.4 27.7754 18.0667C28.5087 18.5583 28.9337 19.2583 28.9337 20.0083C28.9337 20.75 28.5171 21.4584 27.7754 21.9584C27.0171 22.4584 26.0337 22.7333 25.0087 22.7333Z" fill="#858686"/>
<path d="M14.9754 16.5916C14.9671 16.5916 14.9587 16.5916 14.9587 16.5916C13.4587 16.5416 12.2837 15.325 12.2754 13.825C12.2754 12.2916 13.5254 11.0416 15.0504 11.0416C16.5754 11.0416 17.8254 12.2916 17.8254 13.8166C17.8254 15.325 16.6504 16.5416 15.1504 16.5916L14.9754 15.9666L15.0337 16.5916C15.0171 16.5916 14.9921 16.5916 14.9754 16.5916ZM15.0587 15.3416C15.1087 15.3416 15.1504 15.3416 15.2004 15.35C15.9421 15.3166 16.5921 14.65 16.5921 13.825C16.5921 12.9833 15.9087 12.3 15.0671 12.3C14.2254 12.3 13.5421 12.9833 13.5421 13.825C13.5421 14.6416 14.1754 15.3 14.9837 15.35C14.9921 15.3416 15.0254 15.3416 15.0587 15.3416Z" fill="#858686"/>
<path d="M14.9666 22.7333C13.9416 22.7333 12.9583 22.4584 12.2 21.9584C11.4666 21.4668 11.0416 20.7583 11.0416 20.0083C11.0416 19.2667 11.4666 18.5583 12.2 18.0667C13.2 17.4 14.6083 17.1417 15.9666 17.3834C16.3083 17.4417 16.5333 17.7667 16.475 18.1084C16.4166 18.45 16.0916 18.6833 15.75 18.6167C14.7166 18.4333 13.625 18.625 12.8916 19.1083C12.5 19.3667 12.2916 19.6833 12.2916 20.0083C12.2916 20.3333 12.5083 20.6584 12.8916 20.9168C13.6166 21.4001 14.7 21.5917 15.725 21.4167C16.0666 21.3583 16.3916 21.5917 16.45 21.925C16.5083 22.2667 16.2833 22.5917 15.9416 22.65C15.6166 22.7083 15.2916 22.7333 14.9666 22.7333Z" fill="#858686"/>
<path d="M20.0002 22.8166C19.9752 22.8166 19.9585 22.8166 19.9335 22.8166H19.8918C18.3168 22.7666 17.1418 21.5499 17.1418 20.0499C17.1418 18.5166 18.3918 17.2749 19.9168 17.2749C21.4418 17.2749 22.6918 18.5249 22.6918 20.0499C22.6835 21.5583 21.5085 22.7749 20.0085 22.8249C20.0085 22.8166 20.0085 22.8166 20.0002 22.8166ZM19.9168 18.5166C19.0752 18.5166 18.3918 19.1999 18.3918 20.0416C18.3918 20.8666 19.0335 21.5333 19.8585 21.5666C19.8668 21.5583 19.9335 21.5583 20.0085 21.5666C20.8168 21.5249 21.4418 20.8583 21.4502 20.0416C21.4502 19.2083 20.7668 18.5166 19.9168 18.5166Z" fill="#858686"/>
<path d="M19.9994 28.9666C18.9994 28.9666 17.9994 28.7083 17.2244 28.1833C16.491 27.6916 16.066 26.9916 16.066 26.2416C16.066 25.4999 16.4827 24.7833 17.2244 24.2916C18.7827 23.2583 21.2244 23.2583 22.7744 24.2916C23.5077 24.7833 23.9327 25.4833 23.9327 26.2333C23.9327 26.9749 23.516 27.6916 22.7744 28.1833C21.9994 28.6999 20.9994 28.9666 19.9994 28.9666ZM17.916 25.3416C17.5244 25.5999 17.316 25.9249 17.316 26.2499C17.316 26.5749 17.5327 26.8916 17.916 27.1499C19.041 27.9083 20.9494 27.9083 22.0744 27.1499C22.466 26.8916 22.6744 26.5666 22.6744 26.2416C22.6744 25.9166 22.4577 25.5999 22.0744 25.3416C20.9577 24.5833 19.0494 24.5916 17.916 25.3416Z" fill="#858686"/>
</svg>
