<svg width="24" height="25" viewBox="0 0 24 25" fill="none" xmlns="http://www.w3.org/2000/svg">
<path d="M9 19.6543H9.5V19.1543V15.1543V14.6543H9H5H4.5V15.1543V19.1543V19.6543H5H9ZM19 9.6543H19.5V9.1543V5.1543V4.6543H19H15H14.5V5.1543V9.1543V9.6543H15H19ZM17.5 16.1543V16.6543H18H20C20.1326 16.6543 20.2598 16.707 20.3536 16.8007C20.4473 16.8945 20.5 17.0217 20.5 17.1543C20.5 17.2869 20.4473 17.4141 20.3536 17.5079C20.2598 17.6016 20.1326 17.6543 20 17.6543H18H17.5V18.1543V20.1543C17.5 20.2869 17.4473 20.4141 17.3536 20.5079C17.2598 20.6016 17.1326 20.6543 17 20.6543C16.8674 20.6543 16.7402 20.6016 16.6464 20.5079C16.5527 20.4141 16.5 20.2869 16.5 20.1543V18.1543V17.6543H16H14C13.8674 17.6543 13.7402 17.6016 13.6464 17.5079C13.5527 17.4141 13.5 17.2869 13.5 17.1543C13.5 17.0217 13.5527 16.8945 13.6464 16.8007C13.7402 16.707 13.8674 16.6543 14 16.6543H16H16.5V16.1543V14.1543C16.5 14.0217 16.5527 13.8945 16.6464 13.8007C16.7402 13.707 16.8674 13.6543 17 13.6543C17.1326 13.6543 17.2598 13.707 17.3536 13.8007C17.4473 13.8945 17.5 14.0217 17.5 14.1543V16.1543ZM9 9.6543H9.5V9.1543V5.1543V4.6543H9H5H4.5V5.1543V9.1543V9.6543H5H9ZM4 13.6543H10C10.1326 13.6543 10.2598 13.707 10.3536 13.8007C10.4473 13.8945 10.5 14.0217 10.5 14.1543V20.1543C10.5 20.2869 10.4473 20.4141 10.3536 20.5079C10.2598 20.6016 10.1326 20.6543 10 20.6543H4C3.86739 20.6543 3.74021 20.6016 3.64645 20.5079C3.55268 20.4141 3.5 20.2869 3.5 20.1543V14.1543C3.5 14.0217 3.55268 13.8945 3.64645 13.8007C3.74021 13.707 3.86739 13.6543 4 13.6543ZM14 3.6543H20C20.1326 3.6543 20.2598 3.70698 20.3536 3.80074C20.4473 3.89451 20.5 4.02169 20.5 4.1543V10.1543C20.5 10.2869 20.4473 10.4141 20.3536 10.5079C20.2598 10.6016 20.1326 10.6543 20 10.6543H14C13.8674 10.6543 13.7402 10.6016 13.6464 10.5079C13.5527 10.4141 13.5 10.2869 13.5 10.1543V4.1543C13.5 4.02169 13.5527 3.89451 13.6464 3.80074C13.7402 3.70698 13.8674 3.6543 14 3.6543ZM4 3.6543H10C10.1326 3.6543 10.2598 3.70698 10.3536 3.80074C10.4473 3.89451 10.5 4.02169 10.5 4.1543V10.1543C10.5 10.2869 10.4473 10.4141 10.3536 10.5079C10.2598 10.6016 10.1326 10.6543 10 10.6543H4C3.86739 10.6543 3.74021 10.6016 3.64645 10.5079C3.55268 10.4141 3.5 10.2869 3.5 10.1543V4.1543C3.5 4.02169 3.55268 3.89451 3.64645 3.80074C3.74021 3.70698 3.86739 3.6543 4 3.6543Z" stroke="#6F7070"/>
</svg>
