<svg width="20" height="20" viewBox="0 0 20 20" fill="none" xmlns="http://www.w3.org/2000/svg">
<g clip-path="url(#clip0_859_22420)">
<path d="M12.0625 6.3125C11.75 6.625 11.375 6.75 10.9375 6.75C10.5 6.75 10.125 6.625 9.8125 6.3125C9.5 6 9.3125 5.6875 9.3125 5.25C9.3125 4.8125 9.5 4.5 9.8125 4.1875C10.0625 3.875 10.4375 3.75 10.9375 3.75C11.375 3.75 11.75 3.875 12.0625 4.1875C12.375 4.5 12.5 4.8125 12.5 5.25C12.5 5.6875 12.375 6 12.0625 6.3125ZM12.125 15.625C11.5625 15.8125 11.1875 16 10.8125 16.125C10.5 16.25 10.125 16.3125 9.6875 16.3125C9.0625 16.3125 8.5 16.1875 8.1875 15.8125C7.8125 15.5 7.625 15.0625 7.625 14.625C7.625 14.4375 7.625 14.25 7.6875 14.0625C7.6875 13.875 7.75 13.625 7.8125 13.375L8.5 11C8.5625 10.75 8.625 10.5625 8.625 10.375C8.6875 10.1875 8.6875 10 8.6875 9.8125C8.6875 9.5 8.625 9.3125 8.5 9.1875C8.375 9.0625 8.125 9 7.75 9C7.5625 9 7.375 9 7.25 9.0625C7.0625 9.125 6.9375 9.1875 6.8125 9.25L7 8.5C7.4375 8.3125 7.875 8.1875 8.25 8.0625C8.625 7.9375 9 7.875 9.375 7.875C10 7.875 10.5 8 10.875 8.3125C11.25 8.625 11.375 9 11.375 9.5C11.375 9.625 11.375 9.8125 11.3125 10.0625C11.3125 10.3125 11.25 10.5625 11.1875 10.75L10.625 13.0625C10.5625 13.25 10.5 13.5 10.5 13.6875C10.4375 13.9375 10.4375 14.125 10.4375 14.25C10.4375 14.5625 10.5 14.75 10.625 14.875C10.75 15 11 15.0625 11.375 15.0625C11.5625 15.0625 11.75 15.0625 11.9375 15C12.125 14.9375 12.3125 14.875 12.375 14.875L12.125 15.625ZM20 10C20 15.5 15.5 20 10 20C4.5 20 0 15.5 0 10C0 4.5 4.5 0 10 0C15.5 0 20 4.5 20 10ZM10 1.25C5.1875 1.25 1.25 5.1875 1.25 10C1.25 14.8125 5.1875 18.75 10 18.75C14.8125 18.75 18.75 14.8125 18.75 10C18.75 5.1875 14.8125 1.25 10 1.25Z" fill="black"/>
</g>
<defs>
<clipPath id="clip0_859_22420">
<rect width="20" height="20" fill="white"/>
</clipPath>
</defs>
</svg>
