<svg width="24" height="25" viewBox="0 0 24 25" fill="none" xmlns="http://www.w3.org/2000/svg">
<path d="M5 5.5H7V8.5H17V5.5H19V10.5H21V5.5C21 4.4 20.1 3.5 19 3.5H14.82C14.4 2.34 13.3 1.5 12 1.5C10.7 1.5 9.6 2.34 9.18 3.5H5C3.9 3.5 3 4.4 3 5.5V19.5C3 20.6 3.9 21.5 5 21.5H11V19.5H5V5.5ZM12 3.5C12.55 3.5 13 3.95 13 4.5C13 5.05 12.55 5.5 12 5.5C11.45 5.5 11 5.05 11 4.5C11 3.95 11.45 3.5 12 3.5Z" fill="black"/>
<path d="M21 12L15.51 17.5L12.5 14.5L11 16L15.51 20.5L22.5 13.5L21 12Z" fill="black"/>
</svg>
