<svg width="20" height="20" viewBox="0 0 20 20" fill="none" xmlns="http://www.w3.org/2000/svg">
<path fill-rule="evenodd" clip-rule="evenodd" d="M12 20H8C4.22876 20 2.34315 20 1.17157 18.8284C1.19209e-07 17.6569 0 15.7712 0 12V8C0 4.22876 1.19209e-07 2.34315 1.17157 1.17157C2.34315 1.19209e-07 4.23869 0 8.0298 0C8.6358 0 9.1214 -2.42144e-08 9.53 0.01666C9.5166 0.09659 9.5095 0.17813 9.5092 0.26057L9.5 3.09497C9.4999 4.19207 9.4998 5.16164 9.6049 5.94316C9.7188 6.79028 9.9803 7.63726 10.6716 8.3285C11.3628 9.0198 12.2098 9.2813 13.0569 9.3952C13.8385 9.5003 14.808 9.5002 15.9051 9.5001H16H19.9574C20 10.0344 20 10.6901 20 11.5629V12C20 15.7712 20 17.6569 18.8284 18.8284C17.6569 20 15.7712 20 12 20ZM3.25 12.5C3.25 12.0858 3.58579 11.75 4 11.75H12C12.4142 11.75 12.75 12.0858 12.75 12.5C12.75 12.9142 12.4142 13.25 12 13.25H4C3.58579 13.25 3.25 12.9142 3.25 12.5ZM3.25 16C3.25 15.5858 3.58579 15.25 4 15.25H9.5C9.9142 15.25 10.25 15.5858 10.25 16C10.25 16.4142 9.9142 16.75 9.5 16.75H4C3.58579 16.75 3.25 16.4142 3.25 16Z" fill="#96969E"/>
<path d="M17.3468 5.61421L13.388 2.05131C12.2602 1.03624 11.6963 0.528704 11.0043 0.263184L10.9951 2.99767C10.9951 5.35469 10.9951 6.5332 11.7273 7.26543C12.4596 7.99766 13.6381 7.99766 15.9951 7.99766H19.5752C19.2126 7.29344 18.5635 6.7092 17.3468 5.61421Z" fill="#96969E"/>
</svg>
