<svg width="20" height="17" viewBox="0 0 20 17" fill="none" xmlns="http://www.w3.org/2000/svg">
<path d="M18.2604 3.58115L18.5 3.43498V3.1543C18.5 2.75647 18.342 2.37494 18.0607 2.09364C17.7794 1.81233 17.3978 1.6543 17 1.6543H3C2.60217 1.6543 2.22064 1.81233 1.93934 2.09364C1.65804 2.37494 1.5 2.75647 1.5 3.1543V3.43498L1.73962 3.58115L9.73962 8.46115L10 8.61998L10.2604 8.46115L18.2604 3.58115ZM2.26068 5.00763L1.5 4.54288V5.4343V13.1543C1.5 13.5521 1.65804 13.9337 1.93934 14.215C2.22065 14.4963 2.60218 14.6543 3 14.6543H17C17.3978 14.6543 17.7794 14.4963 18.0607 14.215C18.342 13.9337 18.5 13.5521 18.5 13.1543V5.4343V4.54535L17.7403 5.00701L10.2259 9.5736C10.1509 9.61598 10.0662 9.63827 9.98 9.63827C9.89395 9.63827 9.80938 9.61606 9.73447 9.57383L2.26068 5.00763ZM3 0.654297H17C17.663 0.654297 18.2989 0.917689 18.7678 1.38653C19.2366 1.85537 19.5 2.49126 19.5 3.1543V13.1543C19.5 13.8173 19.2366 14.4532 18.7678 14.9221C18.2989 15.3909 17.663 15.6543 17 15.6543H3C2.33696 15.6543 1.70107 15.3909 1.23223 14.9221C0.763392 14.4532 0.5 13.8173 0.5 13.1543V3.1543C0.5 2.49126 0.763392 1.85537 1.23223 1.38653C1.70107 0.917689 2.33696 0.654297 3 0.654297Z" stroke="#6F7070"/>
</svg>
