<svg width="24" height="24" viewBox="0 0 24 22" fill="none" xmlns="http://www.w3.org/2000/svg">
<path opacity="0.91" d="M8.93274 0.799805C8.40745 0.799805 7.88731 0.903268 7.402 1.10429C6.9167 1.30531 6.47575 1.59994 6.10431 1.97138C5.73288 2.34281 5.43824 2.78377 5.23722 3.26907C5.0362 3.75437 4.93274 4.27452 4.93274 4.79981C4.93274 5.32509 5.0362 5.84524 5.23722 6.33054C5.43824 6.81584 5.73288 7.2568 6.10431 7.62823C6.47575 7.99967 6.9167 8.29431 7.402 8.49532C7.88731 8.69634 8.40745 8.79981 8.93274 8.79981C9.9936 8.79981 11.011 8.37838 11.7612 7.62823C12.5113 6.87809 12.9327 5.86067 12.9327 4.79981C12.9327 3.73894 12.5113 2.72152 11.7612 1.97138C11.011 1.22123 9.9936 0.799805 8.93274 0.799805ZM5.47961 9.63379C2.242 11.0077 0.101322 14.1416 -0.000854492 17.6572C2.18893 20.1606 5.39962 21.749 8.98938 21.749C10.9558 21.749 12.7991 21.2574 14.4327 20.415C13.9893 19.8224 13.6167 19.1731 13.3019 18.4756C12.3139 16.2863 11.8061 13.6517 11.7452 11.0889L11.7394 10.8369L9.01867 15.0928L5.47961 9.63379ZM19.0538 9.82715C17.3091 9.82715 14.1945 11.7705 14.1945 11.7705C14.3045 16.4021 16.1433 21.5277 19.0538 21.4912C19.057 21.4912 19.0604 21.4913 19.0636 21.4912C19.8816 21.4808 20.6057 21.0541 21.1964 20.4346C21.7871 19.8151 22.2726 18.9908 22.671 18.0654C23.4679 16.2146 23.9132 13.9563 23.9132 12.0947V11.8271L23.6886 11.6846C23.6886 11.6846 22.9678 11.2266 22.046 10.7686C21.1242 10.3105 20.0263 9.82715 19.0577 9.82715H19.0538ZM19.0538 10.7979H19.0577C19.6583 10.7979 20.7431 11.2067 21.6144 11.6396C22.3429 12.0017 22.7376 12.2534 22.9132 12.3623C22.8741 14.0243 22.4752 16.0579 21.7765 17.6807C21.4095 18.533 20.9675 19.2673 20.4933 19.7647C20.02 20.261 19.5436 20.5114 19.0538 20.5186V10.7979Z" fill="#96969E"/>
</svg>
