<svg width="20" height="20" viewBox="0 0 20 20" fill="none" xmlns="http://www.w3.org/2000/svg">
<path d="M18.2505 0.833008H1.75053C1.50741 0.833008 1.27426 0.929585 1.10235 1.10149C0.930439 1.2734 0.833862 1.50656 0.833862 1.74967V18.2497C0.833862 18.4928 0.930439 18.7259 1.10235 18.8979C1.27426 19.0698 1.50741 19.1663 1.75053 19.1663H18.2505C18.4936 19.1663 18.7268 19.0698 18.8987 18.8979C19.0706 18.7259 19.1672 18.4928 19.1672 18.2497V1.74967C19.1672 1.50656 19.0706 1.2734 18.8987 1.10149C18.7268 0.929585 18.4936 0.833008 18.2505 0.833008ZM4.50053 6.33301C4.50053 6.08989 4.5971 5.85673 4.76901 5.68482C4.94092 5.51292 5.17408 5.41634 5.41719 5.41634H8.16719C8.41031 5.41634 8.64347 5.51292 8.81537 5.68482C8.98728 5.85673 9.08386 6.08989 9.08386 6.33301V9.99967C9.08386 10.2428 8.98728 10.4759 8.81537 10.6479C8.64347 10.8198 8.41031 10.9163 8.16719 10.9163H5.41719C5.17408 10.9163 4.94092 10.8198 4.76901 10.6479C4.5971 10.4759 4.50053 10.2428 4.50053 9.99967V6.33301ZM14.5839 14.583H5.41719C5.17408 14.583 4.94092 14.4864 4.76901 14.3145C4.5971 14.1426 4.50053 13.9095 4.50053 13.6663C4.50053 13.4232 4.5971 13.1901 4.76901 13.0182C4.94092 12.8462 5.17408 12.7497 5.41719 12.7497H14.5839C14.827 12.7497 15.0601 12.8462 15.232 13.0182C15.4039 13.1901 15.5005 13.4232 15.5005 13.6663C15.5005 13.9095 15.4039 14.1426 15.232 14.3145C15.0601 14.4864 14.827 14.583 14.5839 14.583ZM14.5839 10.9163H11.8339C11.5907 10.9163 11.3576 10.8198 11.1857 10.6479C11.0138 10.4759 10.9172 10.2428 10.9172 9.99967C10.9172 9.75656 11.0138 9.5234 11.1857 9.35149C11.3576 9.17958 11.5907 9.083 11.8339 9.083H14.5839C14.827 9.083 15.0601 9.17958 15.232 9.35149C15.4039 9.5234 15.5005 9.75656 15.5005 9.99967C15.5005 10.2428 15.4039 10.4759 15.232 10.6479C15.0601 10.8198 14.827 10.9163 14.5839 10.9163ZM14.5839 7.24967H11.8339C11.5907 7.24967 11.3576 7.15309 11.1857 6.98119C11.0138 6.80928 10.9172 6.57612 10.9172 6.33301C10.9172 6.08989 11.0138 5.85673 11.1857 5.68482C11.3576 5.51292 11.5907 5.41634 11.8339 5.41634H14.5839C14.827 5.41634 15.0601 5.51292 15.232 5.68482C15.4039 5.85673 15.5005 6.08989 15.5005 6.33301C15.5005 6.57612 15.4039 6.80928 15.232 6.98119C15.0601 7.15309 14.827 7.24967 14.5839 7.24967Z" fill="#96969E"/>
</svg>
