<svg width="24" height="24" viewBox="0 0 24 24" fill="none" xmlns="http://www.w3.org/2000/svg">
<path d="M9 18C9 18.7956 9.31607 19.5587 9.87868 20.1213C10.4413 20.6839 11.2044 21 12 21C12.7956 21 13.5587 20.6839 14.1213 20.1213C14.6839 19.5587 15 18.7956 15 18" stroke="#96969E" stroke-width="1.5" stroke-linecap="round" stroke-linejoin="round"/>
<path d="M17.25 2.25C18.6983 3.17411 19.873 4.46888 20.6522 6" stroke="#96969E" stroke-width="1.5" stroke-linecap="round" stroke-linejoin="round"/>
<path d="M3.34753 6C4.12676 4.46888 5.30143 3.17411 6.74972 2.25" stroke="#96969E" stroke-width="1.5" stroke-linecap="round" stroke-linejoin="round"/>
<path d="M5.5 12.5C5.34516 14.2936 4.5 17 4.5 17V17.5H19.5C19.5 17.5 18.6953 16.4526 18.5 14.5L18 9.5C18 9.5 17.7274 7.49802 17 6.5C16.1707 5.36209 15.3186 4.99386 14 4.5C12.8877 4.08342 12.3668 3.41422 11 4L7.5 5.5C7.5 5.5 5.82186 7.78344 5.5 9.5C5.28409 10.6515 5.60077 11.3328 5.5 12.5Z" fill="#96969E" stroke="#96969E"/>
<path d="M5.25013 10.5C5.25013 8.70979 5.96129 6.9929 7.22716 5.72703C8.49303 4.46116 10.2099 3.75 12.0001 3.75C13.7903 3.75 15.5072 4.46116 16.7731 5.72703C18.039 6.9929 18.7501 8.70979 18.7501 10.5C18.7501 13.8581 19.5283 15.8063 20.147 16.875C20.2127 16.9888 20.2474 17.1179 20.2475 17.2493C20.2476 17.3808 20.2132 17.5099 20.1477 17.6239C20.0822 17.7378 19.9878 17.8325 19.8742 17.8985C19.7606 17.9645 19.6316 17.9995 19.5001 18H4.50013C4.36886 17.9992 4.2401 17.964 4.12671 17.8978C4.01332 17.8317 3.91928 17.7369 3.85399 17.6231C3.7887 17.5092 3.75444 17.3801 3.75464 17.2489C3.75484 17.1176 3.78949 16.9887 3.85513 16.875C4.47294 15.8063 5.25013 13.8572 5.25013 10.5Z" stroke="#96969E" stroke-width="1.5" stroke-linecap="round" stroke-linejoin="round"/>
</svg>
