<svg width="10" height="10" viewBox="0 0 10 10" fill="none" xmlns="http://www.w3.org/2000/svg">
<g clip-path="url(#clip0_483_4007)">
<path d="M5.10603 2.04107L6.78251 1.04281C6.82823 1.01994 6.88157 1.00394 6.93492 1.00394C7.10257 1.00394 7.23973 1.14492 7.23973 1.3179V3.31444C7.23973 3.43179 7.17877 3.53391 7.08732 3.58877L5.10603 4.76764C5.05979 4.7947 5.00719 4.80896 4.95362 4.80896C4.90005 4.80896 4.84745 4.7947 4.80121 4.76764L2.81991 3.58877C2.77433 3.55866 2.73668 3.518 2.71015 3.47025C2.68362 3.4225 2.66899 3.36905 2.66751 3.31444V1.3179C2.66751 1.26303 2.67513 1.20817 2.70561 1.16092C2.72443 1.12472 2.75047 1.09276 2.78211 1.06701C2.81376 1.04126 2.85035 1.02227 2.88962 1.0112C2.92889 1.00013 2.97001 0.997227 3.01045 1.00266C3.05088 1.0081 3.08978 1.02176 3.12473 1.04281L4.80121 2.04107C4.89266 2.09594 5.01458 2.09594 5.10603 2.04107ZM2.13408 6.23228L0.457599 5.23401C0.422646 5.21297 0.383752 5.1993 0.343315 5.19387C0.302879 5.18843 0.261758 5.19134 0.222488 5.2024C0.183218 5.21347 0.146631 5.23247 0.114983 5.25822C0.083336 5.28397 0.0572991 5.31593 0.0384784 5.35213C0.0107808 5.39963 -0.00246039 5.45419 0.00037655 5.50911V7.50564C0.00037655 7.61538 0.0613396 7.71749 0.152784 7.77998L2.13408 8.95885C2.22553 9.01372 2.34745 9.01372 2.4389 8.95885L4.42019 7.77998C4.51164 7.72511 4.5726 7.623 4.5726 7.50564V5.50911C4.57342 5.42717 4.54186 5.34822 4.48478 5.28942C4.4277 5.23063 4.34971 5.19675 4.26779 5.19515C4.21444 5.19515 4.1611 5.21039 4.11538 5.23401L2.4389 6.23228C2.39266 6.25934 2.34006 6.27359 2.28649 6.27359C2.23292 6.27359 2.18032 6.25934 2.13408 6.23228ZM7.46834 6.23228L5.79186 5.23401C5.75691 5.21297 5.71801 5.1993 5.67758 5.19387C5.63714 5.18843 5.59602 5.19134 5.55675 5.2024C5.51748 5.21347 5.48089 5.23247 5.44924 5.25822C5.4176 5.28397 5.39156 5.31593 5.37274 5.35213C5.34504 5.39963 5.3318 5.45419 5.33464 5.50911V7.50564C5.33464 7.61538 5.3956 7.71749 5.48705 7.77998L7.46834 8.95885C7.55979 9.01372 7.68171 9.01372 7.77316 8.95885L9.75446 7.77998C9.8459 7.72511 9.90686 7.623 9.90686 7.50564V5.50911C9.90768 5.42717 9.87612 5.34822 9.81904 5.28942C9.76196 5.23063 9.68398 5.19675 9.60205 5.19515C9.54871 5.19515 9.49536 5.21039 9.44964 5.23401L7.77316 6.23228C7.72692 6.25934 7.67432 6.27359 7.62075 6.27359C7.56718 6.27359 7.51458 6.25934 7.46834 6.23228Z" fill="#96969E"/>
</g>
<defs>
<clipPath id="clip0_483_4007">
<rect width="10" height="10" fill="white"/>
</clipPath>
</defs>
</svg>
