<svg width="10" height="10" viewBox="0 0 10 10" fill="none" xmlns="http://www.w3.org/2000/svg">
<path d="M0.333252 7.91732C0.333252 8.62565 0.874919 9.16732 1.58325 9.16732H7.41658C8.12492 9.16732 8.66658 8.62565 8.66658 7.91732V4.58398H0.333252V7.91732ZM7.41658 1.66732H6.58325V1.25065C6.58325 1.00065 6.41658 0.833984 6.16658 0.833984C5.91658 0.833984 5.74992 1.00065 5.74992 1.25065V1.66732H3.24992V1.25065C3.24992 1.00065 3.08325 0.833984 2.83325 0.833984C2.58325 0.833984 2.41659 1.00065 2.41659 1.25065V1.66732H1.58325C0.874919 1.66732 0.333252 2.20898 0.333252 2.91732V3.75065H8.66658V2.91732C8.66658 2.20898 8.12492 1.66732 7.41658 1.66732Z" fill="#96969E"/>
</svg>
