<svg width="8" height="10" viewBox="0 0 8 10" fill="none" xmlns="http://www.w3.org/2000/svg">
<path fill-rule="evenodd" clip-rule="evenodd" d="M4.793 0C5.02778 5.73656e-05 5.25504 0.0827171 5.435 0.2335L5.5 0.293L7.707 2.5C7.87301 2.66601 7.97532 2.88514 7.996 3.119L8 3.207V9C8.00008 9.25229 7.9048 9.49528 7.73325 9.68027C7.56171 9.86526 7.32658 9.97858 7.075 9.9975L7 10H1C0.747712 10.0001 0.504717 9.9048 0.319726 9.73325C0.134735 9.56171 0.0214217 9.32658 0.00250011 9.075L5.0134e-08 9V1C-7.97896e-05 0.747712 0.0952032 0.504717 0.266748 0.319726C0.438294 0.134735 0.673422 0.0214217 0.925 0.00250006L1 0H4.793ZM4 1H1V9H7V4H4.75C4.56356 3.99999 4.3838 3.93054 4.24579 3.80519C4.10778 3.67984 4.0214 3.50758 4.0035 3.322L4 3.25V1ZM4.494 4.924C4.61383 5.68548 5.01205 6.37537 5.6115 6.86C6.055 7.2185 5.6495 7.9205 5.1175 7.716C4.39821 7.4392 3.60179 7.4392 2.8825 7.716C2.35 7.921 1.9445 7.2185 2.388 6.86C2.98749 6.3754 3.38572 5.6855 3.5055 4.924C3.5945 4.3605 4.4055 4.361 4.494 4.924ZM3.999 6.076L3.655 6.674H4.345L3.999 6.076ZM5 1.207V3H6.793L5 1.207Z" fill="#0EADE5"/>
</svg>
