<svg width="13" height="13" viewBox="0 0 13 13" fill="none" xmlns="http://www.w3.org/2000/svg">
<g clip-path="url(#clip0_2162_16829)">
<path d="M4.70691 10.9688H2.4375C2.32976 10.9688 2.22642 10.926 2.15024 10.8498C2.07405 10.7736 2.03125 10.6703 2.03125 10.5626V8.29315C2.0313 8.18555 2.07404 8.08237 2.15008 8.00624L8.41242 1.74389C8.4886 1.66776 8.59189 1.625 8.69959 1.625C8.80729 1.625 8.91058 1.66776 8.98676 1.74389L11.2562 4.01178C11.3323 4.08796 11.3751 4.19125 11.3751 4.29895C11.3751 4.40665 11.3323 4.50994 11.2562 4.58612L4.99383 10.85C4.9177 10.926 4.81451 10.9688 4.70691 10.9688Z" stroke="white" stroke-linecap="round" stroke-linejoin="round"/>
<path d="M6.90625 3.25L9.75 6.09375" stroke="white" stroke-linecap="round" stroke-linejoin="round"/>
</g>
<defs>
<clipPath id="clip0_2162_16829">
<rect width="13" height="13" fill="white"/>
</clipPath>
</defs>
</svg>
