<svg width="20" height="21" viewBox="0 0 20 21" fill="none" xmlns="http://www.w3.org/2000/svg">
<path d="M15.8359 9.66683H10.8359V4.66683C10.8359 4.44582 10.7481 4.23385 10.5919 4.07757C10.4356 3.92129 10.2236 3.8335 10.0026 3.8335C9.78159 3.8335 9.56963 3.92129 9.41335 4.07757C9.25707 4.23385 9.16927 4.44582 9.16927 4.66683V9.66683H4.16927C3.94826 9.66683 3.7363 9.75463 3.58002 9.91091C3.42374 10.0672 3.33594 10.2791 3.33594 10.5002C3.33594 10.7212 3.42374 10.9331 3.58002 11.0894C3.7363 11.2457 3.94826 11.3335 4.16927 11.3335H9.16927V16.3335C9.16927 16.5545 9.25707 16.7665 9.41335 16.9228C9.56963 17.079 9.78159 17.1668 10.0026 17.1668C10.2236 17.1668 10.4356 17.079 10.5919 16.9228C10.7481 16.7665 10.8359 16.5545 10.8359 16.3335V11.3335H15.8359C16.057 11.3335 16.2689 11.2457 16.4252 11.0894C16.5815 10.9331 16.6693 10.7212 16.6693 10.5002C16.6693 10.2791 16.5815 10.0672 16.4252 9.91091C16.2689 9.75463 16.057 9.66683 15.8359 9.66683Z" fill="black"/>
</svg>
