<svg width="18" height="21" viewBox="0 0 18 21" fill="none" xmlns="http://www.w3.org/2000/svg">
<path d="M17.3564 15.2179L17.3579 15.2193C17.4048 15.2658 17.442 15.3211 17.4673 15.382C17.4927 15.4429 17.5058 15.5083 17.5058 15.5743C17.5058 15.6403 17.4927 15.7057 17.4673 15.7666C17.442 15.8275 17.4048 15.8828 17.3579 15.9293L17.3564 15.9307L13.7779 19.5093C13.7776 19.5096 13.7774 19.5098 13.7771 19.51C13.7306 19.556 13.6754 19.5924 13.6148 19.6172C13.5539 19.6421 13.4887 19.6547 13.4229 19.6543H13.42H11C10.8674 19.6543 10.7402 19.6016 10.6464 19.5079C10.5527 19.4141 10.5 19.2869 10.5 19.1543L10.5 16.7343L10.5 16.7314C10.4996 16.6656 10.5122 16.6004 10.5371 16.5395C10.5619 16.4788 10.5983 16.4237 10.6443 16.3771C10.6446 16.3769 10.6448 16.3766 10.645 16.3764L14.2236 12.7979L14.225 12.7964C14.2715 12.7495 14.3268 12.7123 14.3877 12.687C14.4486 12.6616 14.514 12.6485 14.58 12.6485C14.646 12.6485 14.7114 12.6616 14.7723 12.687C14.8332 12.7123 14.8885 12.7495 14.935 12.7964L14.9364 12.7979L17.3564 15.2179ZM11 20.1543H13.42L10 16.7343V19.1543C10 19.4195 10.1054 19.6739 10.2929 19.8614C10.4804 20.0489 10.7348 20.1543 11 20.1543ZM13 18.6543H13.2071L13.3536 18.5079L15.9336 15.9279L16.2871 15.5743L15.9336 15.2207L14.9336 14.2207L14.58 13.8672L14.2264 14.2207L11.6464 16.8007L11.5 16.9472V17.1543V18.1543V18.6543H12H13ZM8.5 2.1543V1.6543H8H3C2.60217 1.6543 2.22064 1.81233 1.93934 2.09364C1.65804 2.37494 1.5 2.75647 1.5 3.1543V17.1543C1.5 17.5521 1.65804 17.9337 1.93934 18.215C2.22065 18.4963 2.60218 18.6543 3 18.6543H7C7.13261 18.6543 7.25979 18.707 7.35355 18.8007C7.44732 18.8945 7.5 19.0217 7.5 19.1543C7.5 19.2869 7.44732 19.4141 7.35355 19.5079C7.25979 19.6016 7.13261 19.6543 7 19.6543H3C2.33696 19.6543 1.70107 19.3909 1.23223 18.9221C0.763392 18.4532 0.5 17.8173 0.5 17.1543V3.1543C0.5 2.49126 0.763392 1.85537 1.23223 1.38653C1.70107 0.917689 2.33696 0.654297 3 0.654297H8.97646L9.21746 0.73714L9.33122 0.776244L9.35283 0.773175C9.37017 0.785836 9.38681 0.799484 9.40266 0.81406L15.3902 6.80164C15.4083 6.82126 15.4249 6.84209 15.44 6.86398V6.90612L15.4661 6.98368C15.4817 7.03 15.493 7.07762 15.5 7.12595V7.12611V7.12633V7.12654V7.12675V7.12695V7.12716V7.12737V7.12757V7.12778V7.12798V7.12818V7.12839V7.12859V7.12879V7.12898V7.12918V7.12938V7.12957V7.12977V7.12996V7.13015V7.13034V7.13053V7.13072V7.13091V7.1311V7.13128V7.13147V7.13165V7.13184V7.13202V7.1322V7.13238V7.13256V7.13274V7.13291V7.13309V7.13327V7.13344V7.13361V7.13379V7.13396V7.13413V7.1343V7.13447V7.13463V7.1348V7.13496V7.13513V7.13529V7.13546V7.13562V7.13578V7.13594V7.1361V7.13626V7.13641V7.13657V7.13673V7.13688V7.13703V7.13719V7.13734V7.13749V7.13764V7.13779V7.13794V7.13808V7.13823V7.13838V7.13852V7.13867V7.13881V7.13895V7.13909V7.13923V7.13937V7.13951V7.13965V7.13978V7.13992V7.14006V7.14019V7.14032V7.14046V7.14059V7.14072V7.14085V7.14098V7.14111V7.14123V7.14136V7.14149V7.14161V7.14174V7.14186V7.14198V7.14211V7.14223V7.14235V7.14247V7.14259V7.1427V7.14282V7.14294V7.14305V7.14317V7.14328V7.14339V7.14351V7.14362V7.14373V7.14384V7.14395V7.14406V7.14416V7.14427V7.14438V7.14448V7.14459V7.14469V7.1448V7.1449V7.145V7.1451V7.1452V7.1453V7.1454V7.1455V7.1456V7.14569V7.14579V7.14588V7.14598V7.14607V7.14616V7.14626V7.14635V7.14644V7.14653V7.14662V7.14671V7.1468V7.14688V7.14697V7.14706V7.14714V7.14723V7.14731V7.1474V7.14748V7.14756V7.14764V7.14772V7.1478V7.14788V7.14796V7.14804V7.14812V7.14819V7.14827V7.14835V7.14842V7.1485V7.14857V7.14864V7.14871V7.14879V7.14886V7.14893V7.149V7.14907V7.14914V7.1492V7.14927V7.14934V7.14941V7.14947V7.14954V7.1496V7.14967V7.14973V7.14979V7.14985V7.14992V7.14998V7.15004V7.1501V7.15016V7.15022V7.15027V7.15033V7.15039V7.15045V7.1505V7.15056V7.15061V7.15067V7.15072V7.15077V7.15083V7.15088V7.15093V7.15098V7.15103V7.15108V7.15113V7.15118V7.15123V7.15128V7.15133V7.15137V7.15142V7.15147V7.15151V7.15156V7.1516V7.15165V7.15169V7.15173V7.15178V7.15182V7.15186V7.1519V7.15194V7.15198V7.15202V7.15206V7.1521V7.15214V7.15218V7.15221V7.15225V7.15229V7.15233V7.15236V7.1524V7.15243V7.15247V7.1525V7.15253V7.15257V7.1526V7.15263V7.15266V7.1527V7.15273V7.15276V7.15279V7.15282V7.15285V7.15288V7.15291V7.15293V7.15296V7.15299V7.15302V7.15304V7.15307V7.1531V7.15312V7.15315V7.15317V7.1532V7.15322V7.15324V7.15327V7.15329V7.15331V7.15334V7.15336V7.15338V7.1534V7.15342V7.15344V7.15346V7.15349V7.1535V7.15352V7.15354V7.15356V7.15358V7.1536V7.15362V7.15363V7.15365V7.15367V7.15369V7.1537V7.15372V7.15373V7.15375V7.15376V7.15378V7.15379V7.15381V7.15382V7.15384V7.15385V7.15386V7.15388V7.15389V7.1539V7.15391V7.15393V7.15394V7.15395V7.15396V7.15397V7.15398V7.15399V7.154V7.15401V7.15402V7.15403V7.15404V7.15405V7.15406V7.15407V7.15408V7.15408V7.15409V7.1541V7.15411V7.15412V7.15412V7.15413V7.15414V7.15416V7.15417V7.15418V7.15419V7.1542V7.15421V7.15422V7.15423V7.15423V7.15424V7.15425V7.15426V7.15427V7.15427V7.15428V7.15429V7.1543V9.1543C15.5 9.28691 15.4473 9.41408 15.3536 9.50785C15.2598 9.60162 15.1326 9.6543 15 9.6543C14.8674 9.6543 14.7402 9.60162 14.6464 9.50785C14.5527 9.41408 14.5 9.28691 14.5 9.1543V8.1543V7.6543H14H11C10.337 7.6543 9.70107 7.3909 9.23223 6.92206C8.76339 6.45322 8.5 5.81734 8.5 5.1543V2.1543ZM10.3536 3.21074L9.5 2.35719V3.5643V5.1543C9.5 5.55212 9.65804 5.93365 9.93934 6.21496C10.2206 6.49626 10.6022 6.6543 11 6.6543H12.59H13.7971L12.9436 5.80074L10.3536 3.21074ZM11.3536 11.5078C11.2598 11.6016 11.1326 11.6543 11 11.6543H5C4.86739 11.6543 4.74022 11.6016 4.64645 11.5078C4.55268 11.4141 4.5 11.2869 4.5 11.1543C4.5 11.0217 4.55268 10.8945 4.64645 10.8007C4.74022 10.707 4.86739 10.6543 5 10.6543H11C11.1326 10.6543 11.2598 10.707 11.3536 10.8007C11.4473 10.8945 11.5 11.0217 11.5 11.1543C11.5 11.2869 11.4473 11.4141 11.3536 11.5078ZM6 7.6543H5C4.86739 7.6543 4.74022 7.60162 4.64645 7.50785C4.55268 7.41408 4.5 7.2869 4.5 7.1543C4.5 7.02169 4.55268 6.89451 4.64645 6.80074C4.74022 6.70698 4.86739 6.6543 5 6.6543H6C6.13261 6.6543 6.25978 6.70698 6.35355 6.80074C6.44732 6.89451 6.5 7.02169 6.5 7.1543C6.5 7.2869 6.44732 7.41408 6.35355 7.50785C6.25978 7.60162 6.13261 7.6543 6 7.6543ZM4.64645 14.8007C4.74021 14.707 4.86739 14.6543 5 14.6543H7C7.13261 14.6543 7.25979 14.707 7.35355 14.8007C7.44732 14.8945 7.5 15.0217 7.5 15.1543C7.5 15.2869 7.44732 15.4141 7.35355 15.5079C7.25979 15.6016 7.13261 15.6543 7 15.6543H5C4.86739 15.6543 4.74021 15.6016 4.64645 15.5079C4.55268 15.4141 4.5 15.2869 4.5 15.1543C4.5 15.0217 4.55268 14.8945 4.64645 14.8007Z" stroke="#6F7070"/>
</svg>
