<svg width="21" height="20" viewBox="0 0 21 20" fill="none" xmlns="http://www.w3.org/2000/svg">
<path d="M5.20768 14.5837H3.95768V5.41699H10.4577L9.79102 6.08366C9.62435 6.25033 9.54102 6.41699 9.54102 6.66699C9.54102 7.16699 9.87435 7.50033 10.3743 7.50033C10.6243 7.50033 10.791 7.41699 10.9577 7.25033L13.041 5.16699C13.3743 4.83366 13.3743 4.33366 13.041 4.00033L10.9577 1.91699C10.6243 1.58366 10.1243 1.58366 9.79102 1.91699C9.45768 2.25033 9.45768 2.75033 9.79102 3.08366L10.4577 3.75033H3.12435C2.62435 3.75033 2.29102 4.08366 2.29102 4.58366V15.417C2.29102 15.917 2.62435 16.2503 3.12435 16.2503H5.20768C5.70768 16.2503 6.04102 15.917 6.04102 15.417C6.04102 14.917 5.70768 14.5837 5.20768 14.5837ZM18.1243 3.75033H16.041C15.541 3.75033 15.2077 4.08366 15.2077 4.58366C15.2077 5.08366 15.541 5.41699 16.041 5.41699H17.291V14.5837H10.291L10.9577 13.917C11.291 13.5837 11.291 13.0837 10.9577 12.7503C10.6243 12.417 10.1243 12.417 9.79102 12.7503L7.70768 14.8337C7.37435 15.167 7.37435 15.667 7.70768 16.0003L9.79102 18.0837C9.95768 18.2503 10.1243 18.3337 10.3743 18.3337C10.6243 18.3337 10.791 18.2503 10.9577 18.0837C11.291 17.7503 11.291 17.2503 10.9577 16.917L10.291 16.2503H18.1243C18.6243 16.2503 18.9577 15.917 18.9577 15.417V4.58366C18.9577 4.08366 18.6243 3.75033 18.1243 3.75033Z" fill="white"/>
</svg>
