<svg width="16" height="17" viewBox="0 0 16 17" fill="none" xmlns="http://www.w3.org/2000/svg">
<path d="M14.0007 7.83301C13.6007 7.83301 13.334 8.09967 13.334 8.49967C13.334 10.433 12.334 12.1663 10.6673 13.0997C8.13398 14.5663 4.86732 13.6997 3.40065 11.1663C1.93398 8.63301 2.80065 5.36634 5.33398 3.89967C7.53398 2.63301 10.2007 3.09967 11.8673 4.83301H10.2673C9.86732 4.83301 9.60065 5.09967 9.60065 5.49967C9.60065 5.89967 9.86732 6.16634 10.2673 6.16634H13.2673C13.6673 6.16634 13.934 5.89967 13.934 5.49967V2.49967C13.934 2.09967 13.6673 1.83301 13.2673 1.83301C12.8673 1.83301 12.6007 2.09967 12.6007 2.49967V3.69967C11.334 2.49967 9.73398 1.83301 8.00065 1.83301C4.33398 1.83301 1.33398 4.83301 1.33398 8.49967C1.33398 12.1663 4.33398 15.1663 8.00065 15.1663C11.6673 15.1663 14.6673 12.1663 14.6673 8.49967C14.6673 8.09967 14.4007 7.83301 14.0007 7.83301Z" fill="#010E13"/>
</svg>
