<svg width="20" height="21" viewBox="0 0 20 21" fill="none" xmlns="http://www.w3.org/2000/svg">
<path d="M9.5 9.8743V9.58562L9.24999 9.44128C9.02328 9.3104 8.83478 9.12246 8.7032 8.89616C8.57189 8.6703 8.50185 8.41408 8.5 8.15285C8.50038 7.75555 8.65838 7.3746 8.93934 7.09364C9.22064 6.81233 9.60218 6.6543 10 6.6543C10.3978 6.6543 10.7794 6.81233 11.0607 7.09364C11.3416 7.3746 11.4996 7.75554 11.5 8.15284C11.4981 8.41407 11.4281 8.6703 11.2968 8.89616C11.1652 9.12246 10.9767 9.3104 10.75 9.44128L10.5 9.58562V9.8743V13.1543C10.5 13.2869 10.4473 13.4141 10.3536 13.5078C10.2598 13.6016 10.1326 13.6543 10 13.6543C9.86739 13.6543 9.74022 13.6016 9.64645 13.5078C9.55268 13.4141 9.5 13.2869 9.5 13.1543V9.8743ZM3 0.654297H17C17.663 0.654297 18.2989 0.917689 18.7678 1.38653C19.2366 1.85537 19.5 2.49126 19.5 3.1543V17.1543C19.5 17.8173 19.2366 18.4532 18.7678 18.9221C18.2989 19.3909 17.663 19.6543 17 19.6543H3C2.33696 19.6543 1.70107 19.3909 1.23223 18.9221C0.763392 18.4532 0.5 17.8173 0.5 17.1543V3.1543C0.5 2.49126 0.763392 1.85537 1.23223 1.38653C1.70107 0.917689 2.33696 0.654297 3 0.654297ZM18.0607 18.215C18.342 17.9337 18.5 17.5521 18.5 17.1543V3.1543C18.5 2.75647 18.342 2.37494 18.0607 2.09364C17.7794 1.81233 17.3978 1.6543 17 1.6543H3C2.60217 1.6543 2.22064 1.81233 1.93934 2.09364C1.65804 2.37494 1.5 2.75647 1.5 3.1543V17.1543C1.5 17.5521 1.65804 17.9337 1.93934 18.215C2.22065 18.4963 2.60218 18.6543 3 18.6543H17C17.3978 18.6543 17.7794 18.4963 18.0607 18.215Z" stroke="#6F7070"/>
</svg>
