<svg width="26" height="26" viewBox="0 0 26 26" fill="none" xmlns="http://www.w3.org/2000/svg">
<path d="M13 0.5C6.125 0.5 0.5 6.125 0.5 13C0.5 19.875 6.125 25.5 13 25.5C19.875 25.5 25.5 19.875 25.5 13C25.5 6.125 19.875 0.5 13 0.5ZM18 14.25H14.25V18C14.25 18.75 13.75 19.25 13 19.25C12.25 19.25 11.75 18.75 11.75 18V14.25H8C7.25 14.25 6.75 13.75 6.75 13C6.75 12.25 7.25 11.75 8 11.75H11.75V8C11.75 7.25 12.25 6.75 13 6.75C13.75 6.75 14.25 7.25 14.25 8V11.75H18C18.75 11.75 19.25 12.25 19.25 13C19.25 13.75 18.75 14.25 18 14.25Z" fill="#0EADE5"/>
</svg>
