<svg width="20" height="20" viewBox="0 0 20 20" fill="none" xmlns="http://www.w3.org/2000/svg">
<path d="M12.5811 10.5275L10.8327 9.51839V5.83268C10.8327 5.61167 10.7449 5.39971 10.5886 5.24343C10.4323 5.08715 10.2204 4.99935 9.99935 4.99935C9.77834 4.99935 9.56638 5.08715 9.4101 5.24343C9.25382 5.39971 9.16602 5.61167 9.16602 5.83268V9.99935C9.16598 10.1457 9.20447 10.2894 9.27761 10.4161C9.35075 10.5428 9.45597 10.648 9.58269 10.7212L11.7478 11.9712C11.8426 12.026 11.9473 12.0615 12.0558 12.0759C12.1644 12.0902 12.2747 12.083 12.3804 12.0547C12.4862 12.0263 12.5853 11.9775 12.6722 11.9108C12.7591 11.8442 12.8319 11.7611 12.8867 11.6662C12.9414 11.5714 12.9769 11.4667 12.9912 11.3582C13.0055 11.2496 12.9982 11.1393 12.9698 11.0336C12.9415 10.9278 12.8925 10.8287 12.8258 10.7419C12.7591 10.655 12.676 10.5822 12.5811 10.5275V10.5275ZM9.99935 1.66602C8.35118 1.66602 6.74001 2.15476 5.3696 3.07044C3.99919 3.98611 2.93109 5.2876 2.30036 6.81032C1.66963 8.33304 1.5046 10.0086 1.82614 11.6251C2.14769 13.2416 2.94136 14.7265 4.1068 15.8919C5.27223 17.0573 6.75709 17.851 8.3736 18.1726C9.99011 18.4941 11.6657 18.3291 13.1884 17.6983C14.7111 17.0676 16.0126 15.9995 16.9283 14.6291C17.8439 13.2587 18.3327 11.6475 18.3327 9.99935C18.3302 7.78997 17.4515 5.67178 15.8892 4.10951C14.3269 2.54724 12.2087 1.66847 9.99935 1.66602V1.66602ZM9.99935 16.666C8.68081 16.666 7.39188 16.275 6.29555 15.5425C5.19922 14.8099 4.34474 13.7687 3.84016 12.5506C3.33557 11.3324 3.20355 9.99195 3.46078 8.69875C3.71802 7.40554 4.35296 6.21765 5.28531 5.2853C6.21766 4.35295 7.40554 3.71802 8.69875 3.46078C9.99196 3.20355 11.3324 3.33557 12.5506 3.84015C13.7687 4.34474 14.8099 5.19922 15.5425 6.29555C16.275 7.39188 16.666 8.68081 16.666 9.99935C16.664 11.7668 15.961 13.4614 14.7112 14.7112C13.4614 15.961 11.7668 16.664 9.99935 16.666V16.666Z" fill="#0B0B0B"/>
</svg>
