<svg width="12" height="12" viewBox="0 0 12 12" fill="none" xmlns="http://www.w3.org/2000/svg">
<path d="M5.99866 0C2.68603 0 0 2.68644 0 6C0 9.31356 2.68603 12 5.99866 12C9.31207 12 11.9977 9.31358 11.9977 6C11.9977 2.68642 9.31207 0 5.99866 0ZM7.05197 8.75465C6.80933 9.024 6.67025 9.18408 6.40834 9.43452C6.0119 9.81368 5.56175 9.91463 5.21178 9.54037C4.70875 9.00225 5.23634 7.36521 5.2492 7.30321C5.34369 6.8681 5.53227 5.99848 5.53227 5.99848C5.53227 5.99848 5.12485 6.24795 4.88297 6.33643C4.70457 6.40164 4.50277 6.31602 4.45288 6.14344C4.40639 5.98355 4.44341 5.88185 4.54132 5.7726C4.78394 5.50344 4.92302 5.34335 5.18495 5.09292C5.58176 4.71357 6.03154 4.61283 6.38151 4.98688C6.88455 5.525 6.51339 6.41033 6.38301 7.03766C6.37017 7.09984 6.06099 8.52896 6.06099 8.52896C6.06099 8.52896 6.46842 8.27946 6.7103 8.19082C6.88905 8.1258 7.09087 8.21161 7.14076 8.384C7.18728 8.54391 7.14988 8.64559 7.05197 8.75465ZM6.40117 4.12782C5.84145 4.17695 5.34823 3.76303 5.29909 3.20279C5.25035 2.64313 5.66418 2.14961 6.22392 2.10086C6.78327 2.05171 7.27686 2.46603 7.32563 3.02569C7.37474 3.58537 6.96052 4.07907 6.40117 4.12782Z" fill="#347AE5"/>
</svg>
