<svg  viewBox="0 0 21 21" fill="none" xmlns="http://www.w3.org/2000/svg">
<path d="M20.7002 18.8002L17.0002 15.1002C20.1002 11.2002 19.5002 5.50024 15.6002 2.40024C11.7002 -0.699761 6.00024 0.000238657 2.90024 3.80024C-0.199761 7.70024 0.500239 13.4002 4.30024 16.5002C7.60024 19.1002 12.3002 19.1002 15.6002 16.5002L19.3002 20.2002C19.7002 20.6002 20.3002 20.6002 20.7002 20.2002C21.1002 19.8002 21.1002 19.2002 20.7002 18.8002ZM10.0002 16.5002C6.10024 16.5002 3.00024 13.4002 3.00024 9.50024C3.00024 5.60024 6.10024 2.50024 10.0002 2.50024C13.9002 2.50024 17.0002 5.60024 17.0002 9.50024C17.0002 13.4002 13.9002 16.5002 10.0002 16.5002Z" fill="#858686"/>
</svg>
