<svg width="24" height="24" viewBox="0 0 24 24" fill="none" xmlns="http://www.w3.org/2000/svg">
<path d="M21.7003 10.6997C21.4003 10.0997 20.9003 9.69974 20.4003 9.39974L6.40026 2.39974C4.90026 1.69974 3.10026 2.29974 2.40026 3.69974C1.90026 4.49974 1.90026 5.39974 2.30026 6.19974L4.40026 10.9997H13.5003C14.1003 10.9997 14.5003 11.3997 14.5003 11.9997C14.5003 12.5997 14.1003 12.9997 13.5003 12.9997H4.40026L2.30026 17.7997C1.60026 19.2997 2.30026 21.0997 3.80026 21.7997C4.20026 21.8997 4.60026 21.9997 5.00026 21.9997C5.50026 21.9997 5.90026 21.8997 6.30026 21.6997L20.3003 14.6997C21.8003 13.8997 22.4003 12.0997 21.7003 10.6997Z" fill="#0EADE5"/>
</svg>
