<svg width="21" height="20" viewBox="0 0 21 20" fill="none" xmlns="http://www.w3.org/2000/svg">
<path d="M18.2135 9.41076L11.5468 2.7441C11.4303 2.62755 11.2818 2.54818 11.1202 2.51602C10.9586 2.48386 10.791 2.50035 10.6388 2.56342C10.4865 2.62648 10.3563 2.73328 10.2648 2.87032C10.1732 3.00735 10.1243 3.16845 10.1243 3.33326V6.28736C7.84793 6.49807 5.73206 7.55065 4.19079 9.23913C2.64952 10.9276 1.79377 13.1304 1.79102 15.4166V16.6666C1.791 16.8397 1.84487 17.0084 1.94514 17.1495C2.04541 17.2905 2.18711 17.3969 2.35057 17.4537C2.51403 17.5106 2.69113 17.5151 2.8573 17.4668C3.02346 17.4184 3.17044 17.3195 3.27783 17.1838C4.0942 16.2129 5.09587 15.4144 6.22432 14.835C7.35277 14.2557 8.58537 13.907 9.8501 13.8093C9.8916 13.804 9.99577 13.7959 10.1243 13.7878V16.6666C10.1243 16.8314 10.1732 16.9925 10.2648 17.1295C10.3563 17.2666 10.4865 17.3734 10.6388 17.4364C10.791 17.4995 10.9586 17.516 11.1202 17.4838C11.2818 17.4517 11.4303 17.3723 11.5468 17.2558L18.2135 10.5891C18.2909 10.5117 18.3523 10.4199 18.3942 10.3188C18.4361 10.2177 18.4576 10.1094 18.4576 9.99993C18.4576 9.8905 18.4361 9.78215 18.3942 9.68106C18.3523 9.57997 18.2909 9.48812 18.2135 9.41076ZM11.791 14.6549V12.9166C11.791 12.8072 11.7695 12.6988 11.7276 12.5977C11.6858 12.4965 11.6244 12.4047 11.547 12.3273C11.4696 12.2499 11.3777 12.1885 11.2766 12.1466C11.1755 12.1048 11.0671 12.0832 10.9577 12.0833C10.7453 12.0833 9.87777 12.1244 9.65642 12.1541C7.41024 12.361 5.27215 13.2143 3.50082 14.6109C3.70176 12.7729 4.57366 11.0735 5.94957 9.83832C7.32547 8.60311 9.10867 7.91886 10.9577 7.9166C11.0671 7.91662 11.1755 7.89509 11.2766 7.85322C11.3777 7.81135 11.4696 7.74997 11.547 7.67258C11.6244 7.59519 11.6858 7.50332 11.7276 7.4022C11.7695 7.30108 11.791 7.1927 11.791 7.08326V5.34498L16.446 9.99993L11.791 14.6549Z" fill="white"/>
</svg>
