<svg width="15" height="15" viewBox="0 0 15 15" fill="none" xmlns="http://www.w3.org/2000/svg">
<path d="M13.9811 1.63635C14.0052 1.55082 14.006 1.46041 13.9836 1.37444C13.9612 1.28846 13.9162 1.21001 13.8534 1.14718C13.7905 1.08435 13.7121 1.03939 13.6261 1.01695C13.5401 0.994501 13.4497 0.995374 13.3642 1.01948L1.36419 4.65823C1.26622 4.68588 1.17903 4.74277 1.11426 4.8213C1.04949 4.89984 1.01024 4.99627 1.00174 5.09771C0.993251 5.19916 1.01592 5.30077 1.06673 5.38898C1.11754 5.47719 1.19406 5.5478 1.28607 5.59135L6.75044 8.2501L9.40919 13.7139C9.45275 13.8059 9.52335 13.8824 9.61156 13.9332C9.69977 13.984 9.80139 14.0067 9.90283 13.9982C10.0043 13.9897 10.1007 13.9504 10.1792 13.8857C10.2578 13.8209 10.3147 13.7337 10.3423 13.6357L13.9811 1.63635Z" stroke="#0EADE5" stroke-width="1.5" stroke-linecap="round" stroke-linejoin="round"/>
</svg>
