<svg width="17" height="17" viewBox="0 0 17 17" fill="none" xmlns="http://www.w3.org/2000/svg">
<path d="M15.9993 0.166992H0.999349C0.778335 0.166992 0.566374 0.25479 0.410093 0.41107C0.253813 0.56735 0.166016 0.779312 0.166016 1.00033V16.0003C0.166016 16.2213 0.253813 16.4333 0.410093 16.5896C0.566374 16.7459 0.778335 16.8337 0.999349 16.8337H15.9993C16.2204 16.8337 16.4323 16.7459 16.5886 16.5896C16.7449 16.4333 16.8327 16.2213 16.8327 16.0003V1.00033C16.8327 0.779312 16.7449 0.56735 16.5886 0.41107C16.4323 0.25479 16.2204 0.166992 15.9993 0.166992ZM5.16602 15.167H1.83268V1.83366H5.16602V15.167ZM15.166 15.167H6.83268V1.83366H15.166V15.167Z" fill="#0B0B0B"/>
</svg>
