<svg width="24" height="25" viewBox="0 0 24 25" fill="none" xmlns="http://www.w3.org/2000/svg">
<path d="M13.5 16.6543V16.1543H13H3C2.86739 16.1543 2.74021 16.1016 2.64645 16.0079C2.55268 15.9141 2.5 15.7869 2.5 15.6543V13.6543C2.5 13.5217 2.55268 13.3945 2.64645 13.3007C2.74021 13.207 2.86739 13.1543 3 13.1543C3.13261 13.1543 3.25979 13.207 3.35355 13.3007C3.44732 13.3945 3.5 13.5217 3.5 13.6543V14.6543V15.1543H4H6H6.5V14.6543V7.6543C6.5 6.99126 6.76339 6.35537 7.23223 5.88653C7.70107 5.41769 8.33696 5.1543 9 5.1543H19C19.663 5.1543 20.2989 5.41769 20.7678 5.88653C21.2366 6.35537 21.5 6.99126 21.5 7.6543V15.6543C21.5 15.7869 21.4473 15.9141 21.3536 16.0079C21.2598 16.1016 21.1326 16.1543 21 16.1543H19H18.5V16.6543C18.5 17.3173 18.2366 17.9532 17.7678 18.4221C17.2989 18.8909 16.663 19.1543 16 19.1543C15.337 19.1543 14.7011 18.8909 14.2322 18.4221C13.7634 17.9532 13.5 17.3173 13.5 16.6543ZM8 10.1543H7.5V10.6543V14.6543V15.1543H8H13.78H14.0012L14.15 14.9906C14.3843 14.7328 14.6699 14.5268 14.9885 14.3859C15.3071 14.2449 15.6516 14.1721 16 14.1721C16.3484 14.1721 16.6929 14.2449 17.0115 14.3859C17.3301 14.5268 17.6157 14.7328 17.85 14.9906L17.9988 15.1543H18.22H20H20.5V14.6543V10.6543V10.1543H20H8ZM20 9.1543H20.5V8.6543V7.6543C20.5 7.25647 20.342 6.87494 20.0607 6.59364C19.7794 6.31233 19.3978 6.1543 19 6.1543H9C8.60218 6.1543 8.22064 6.31233 7.93934 6.59364C7.65804 6.87494 7.5 7.25647 7.5 7.6543V8.6543V9.1543H8H20ZM14.7528 15.8209C14.588 16.0676 14.5 16.3576 14.5 16.6543C14.5 17.0521 14.658 17.4337 14.9393 17.715C15.2206 17.9963 15.6022 18.1543 16 18.1543C16.2967 18.1543 16.5867 18.0663 16.8334 17.9015C17.08 17.7367 17.2723 17.5024 17.3858 17.2283C17.4994 16.9542 17.5291 16.6526 17.4712 16.3617C17.4133 16.0707 17.2704 15.8034 17.0607 15.5936C16.8509 15.3839 16.5836 15.241 16.2926 15.1831C16.0017 15.1252 15.7001 15.1549 15.426 15.2685C15.1519 15.382 14.9176 15.5743 14.7528 15.8209Z" stroke="#0EADE5"/>
</svg>
