<svg width="24" height="24" viewBox="0 0 24 24" fill="none" xmlns="http://www.w3.org/2000/svg">
<g clip-path="url(#clip0_1657_9754)">
<path d="M12 21C16.9706 21 21 16.9706 21 12C21 7.02944 16.9706 3 12 3C7.02944 3 3 7.02944 3 12C3 16.9706 7.02944 21 12 21Z" stroke="#F33939" stroke-width="1.5" stroke-linecap="round" stroke-linejoin="round"/>
<path d="M14 15H10C9.44772 15 9 14.5523 9 14V9.5C9 8.94772 9.44772 8.5 10 8.5H14C14.5523 8.5 15 8.94772 15 9.5V14C15 14.5523 14.5523 15 14 15Z" stroke="#F33939" stroke-width="1.5" stroke-linecap="square"/>
</g>
<defs>
<clipPath id="clip0_1657_9754">
<rect width="24" height="24" fill="white"/>
</clipPath>
</defs>
</svg>
