<svg width="19" height="19" viewBox="0 0 19 19" fill="none" xmlns="http://www.w3.org/2000/svg">
<path d="M12.7705 2.8701L15.4894 5.58905C16.1004 6.1695 16.1004 7.14709 15.4894 7.72754L8.40186 14.7846V8.33854V5.0697L10.6014 2.83955C11.1819 2.2591 12.19 2.2591 12.7705 2.8701Z" fill="#96969E"/>
<path d="M5.34623 0H1.52749C0.672098 0 0 0.672099 0 1.5275V14.9084C0 16.8025 1.5275 18.33 3.42159 18.33C5.31568 18.33 6.84318 16.8025 6.84318 14.9084V1.5275C6.87373 0.672099 6.17108 0 5.34623 0ZM3.42159 16.4359C2.56619 16.4359 1.89409 15.7638 1.89409 14.9084C1.89409 14.053 2.56619 13.3809 3.42159 13.3809C4.27699 13.3809 4.94908 14.053 4.94908 14.9084C4.94908 15.7638 4.27699 16.4359 3.42159 16.4359Z" fill="#96969E"/>
<path d="M16.8031 11.4563H14.1147L12.2817 13.2893H16.4976L16.467 16.497H9.10448L7.27148 18.33H16.8031C17.6585 18.33 18.3305 17.6579 18.3305 16.8025V12.9838C18.3305 12.1589 17.6585 11.4563 16.8031 11.4563Z" fill="#96969E"/>
</svg>
