<svg width="24" height="25" viewBox="0 0 24 25" fill="none" xmlns="http://www.w3.org/2000/svg">
<path d="M3 8.35563L3.85385 9.21094L9.73333 15.1004C10.2021 15.5686 10.8375 15.8316 11.5 15.8316C12.1624 15.8316 12.7977 15.5687 13.2664 15.1006L3 8.35563ZM3 8.35563V9.56419V19.1542C3 19.552 3.15803 19.9335 3.43934 20.2149C3.72065 20.4962 4.10218 20.6542 4.5 20.6542H18.5C18.8978 20.6542 19.2794 20.4962 19.5607 20.2149C19.842 19.9335 20 19.552 20 19.1542V15.1542C20 15.0216 20.0527 14.8944 20.1464 14.8006C20.2402 14.7069 20.3674 14.6542 20.5 14.6542C20.6326 14.6542 20.7598 14.7069 20.8536 14.8006C20.9473 14.8944 21 15.0216 21 15.1542V19.1542C21 19.8172 20.7366 20.4531 20.2678 20.922C19.7989 21.3908 19.163 21.6542 18.5 21.6542H4.5C3.83696 21.6542 3.20107 21.3908 2.73223 20.922C2.26339 20.4531 2 19.8172 2 19.1542V9.15419C2 8.49115 2.26339 7.85527 2.73223 7.38643C3.20107 6.91759 3.83696 6.65419 4.5 6.65419H11.5C11.6326 6.65419 11.7598 6.70687 11.8536 6.80064C11.9473 6.89441 12 7.02159 12 7.15419C12 7.2868 11.9473 7.41398 11.8536 7.50775C11.7598 7.60151 11.6326 7.65419 11.5 7.65419H4.91H3.70144L4.55675 8.50805L10.4467 14.388L10.4467 14.3881L10.45 14.3913C10.7304 14.6661 11.1074 14.8201 11.5 14.8201C11.8926 14.8201 12.2696 14.6661 12.55 14.3913L12.55 14.3913L12.5536 14.3877L14.1936 12.7477C14.2881 12.6532 14.4163 12.6001 14.55 12.6001C14.6837 12.6001 14.8119 12.6532 14.9064 12.7477C15.001 12.8423 15.0541 12.9705 15.0541 13.1042C15.0541 13.2379 15.001 13.3661 14.9064 13.4606L13.2667 15.1004L3 8.35563ZM21.8564 5.79775L21.8579 5.79919C21.9048 5.84568 21.942 5.90098 21.9673 5.9619C21.9927 6.02283 22.0058 6.08819 22.0058 6.15419C22.0058 6.2202 21.9927 6.28555 21.9673 6.34648C21.942 6.40741 21.9048 6.46271 21.8579 6.50919L21.855 6.51209C21.8085 6.55896 21.7532 6.59615 21.6923 6.62154C21.6314 6.64692 21.566 6.65999 21.5 6.65999C21.434 6.65999 21.3686 6.64692 21.3077 6.62154C21.2468 6.59615 21.1915 6.55896 21.145 6.51209L21.1449 6.51201L19.8549 5.21201L19 4.35046V5.56419V11.1542C19 11.2868 18.9473 11.414 18.8536 11.5077C18.7598 11.6015 18.6326 11.6542 18.5 11.6542C18.3674 11.6542 18.2402 11.6015 18.1464 11.5077C18.0527 11.414 18 11.2868 18 11.1542V5.56419V4.35046L17.1451 5.21201L15.8564 6.51064C15.8563 6.51083 15.8561 6.51102 15.8559 6.51121C15.7614 6.60539 15.6334 6.65829 15.5 6.65829C15.3663 6.65829 15.2381 6.60518 15.1436 6.51064C15.049 6.41611 14.9959 6.28789 14.9959 6.15419C14.9959 6.0205 15.049 5.89228 15.1436 5.79775L18.139 2.80226C18.1859 2.75822 18.2408 2.72363 18.3008 2.70038L18.3008 2.70047L18.31 2.69669C18.4317 2.64668 18.5683 2.64668 18.69 2.69669L18.69 2.69678L18.6992 2.70038C18.7592 2.72363 18.8141 2.75823 18.861 2.80226L21.8564 5.79775Z" stroke="#6F7070"/>
</svg>
