<svg width="21" height="20" viewBox="0 0 21 20" fill="none" xmlns="http://www.w3.org/2000/svg">
<path d="M14.666 2.74935C11.416 0.916016 7.41602 1.49935 4.74935 3.99935V2.49935C4.74935 1.99935 4.41602 1.66602 3.91602 1.66602C3.41602 1.66602 3.08268 1.99935 3.08268 2.49935V6.24935C3.08268 6.74935 3.41602 7.08268 3.91602 7.08268H7.66602C8.16602 7.08268 8.49935 6.74935 8.49935 6.24935C8.49935 5.74935 8.16602 5.41602 7.66602 5.41602H5.66602C6.91602 4.08268 8.66602 3.33268 10.4993 3.33268C14.166 3.33268 17.166 6.33268 17.166 9.99935C17.166 13.666 14.166 16.666 10.4993 16.666C6.83268 16.666 3.83268 13.666 3.83268 9.99935C3.83268 9.49935 3.49935 9.16602 2.99935 9.16602C2.49935 9.16602 2.16602 9.49935 2.16602 9.99935C2.16602 14.5827 5.91602 18.3327 10.4993 18.3327C13.4993 18.3327 16.2493 16.7493 17.7493 14.166C19.9993 10.166 18.666 5.08268 14.666 2.74935ZM10.4993 6.66602C9.99935 6.66602 9.66602 6.99935 9.66602 7.49935V9.99935C9.66602 10.4993 9.99935 10.8327 10.4993 10.8327H12.166C12.666 10.8327 12.9993 10.4993 12.9993 9.99935C12.9993 9.49935 12.666 9.16602 12.166 9.16602H11.3327V7.49935C11.3327 6.99935 10.9993 6.66602 10.4993 6.66602Z" fill="#0B0B0B"/>
</svg>
