<svg width="20" height="20" viewBox="0 0 20 20" fill="none" xmlns="http://www.w3.org/2000/svg">
<path d="M15 7.50033H13.3333C12.8333 7.50033 12.5 7.83366 12.5 8.33366C12.5 8.83366 12.8333 9.16699 13.3333 9.16699H15C15.5 9.16699 15.8333 9.50033 15.8333 10.0003V15.8337C15.8333 16.3337 15.5 16.667 15 16.667H5C4.5 16.667 4.16667 16.3337 4.16667 15.8337V10.0003C4.16667 9.50033 4.5 9.16699 5 9.16699H6.66667C7.16667 9.16699 7.5 8.83366 7.5 8.33366C7.5 7.83366 7.16667 7.50033 6.66667 7.50033H5C3.58333 7.50033 2.5 8.58366 2.5 10.0003V15.8337C2.5 17.2503 3.58333 18.3337 5 18.3337H15C16.4167 18.3337 17.5 17.2503 17.5 15.8337V10.0003C17.5 8.58366 16.4167 7.50033 15 7.50033ZM8.08333 5.58366L9.16667 4.50033V14.167C9.16667 14.667 9.5 15.0003 10 15.0003C10.5 15.0003 10.8333 14.667 10.8333 14.167V4.50033L11.9167 5.58366C12.0833 5.75033 12.25 5.83366 12.5 5.83366C12.75 5.83366 12.9167 5.75033 13.0833 5.58366C13.4167 5.25033 13.4167 4.75033 13.0833 4.41699L10.5833 1.91699C10.25 1.58366 9.75 1.58366 9.41667 1.91699L6.91667 4.41699C6.58333 4.75033 6.58333 5.25033 6.91667 5.58366C7.25 5.91699 7.75 5.91699 8.08333 5.58366Z" fill="#0C90BF"/>
</svg>
