<svg width="18" height="17" viewBox="0 0 18 17" fill="none" xmlns="http://www.w3.org/2000/svg">
<path d="M11.9707 9.06746C12.7589 8.45074 13.3342 7.60504 13.6166 6.64801C13.899 5.69097 13.8744 4.6702 13.5463 3.72771C13.2182 2.78521 12.6028 1.96786 11.7859 1.38937C10.9689 0.810873 9.99097 0.5 8.98808 0.5C7.98519 0.5 7.00723 0.810873 6.19027 1.38937C5.37331 1.96786 4.75797 2.78521 4.42985 3.72771C4.10173 4.6702 4.07716 5.69097 4.35954 6.64801C4.64193 7.60504 5.21723 8.45074 6.00542 9.06746C4.65485 9.60558 3.47642 10.4981 2.59578 11.6499C1.71514 12.8017 1.16529 14.1696 1.00485 15.6077C0.993236 15.7127 1.00253 15.8189 1.0322 15.9204C1.06188 16.0218 1.11135 16.1164 1.17779 16.1988C1.31197 16.3652 1.50714 16.4718 1.72037 16.4952C1.93359 16.5185 2.14739 16.4566 2.31475 16.3232C2.4821 16.1897 2.5893 15.9956 2.61275 15.7836C2.78929 14.2206 3.53865 12.7772 4.71767 11.729C5.89669 10.6807 7.4227 10.1013 9.00416 10.1013C10.5856 10.1013 12.1116 10.6807 13.2906 11.729C14.4697 12.7772 15.219 14.2206 15.3956 15.7836C15.4174 15.98 15.5117 16.1615 15.6601 16.2929C15.8086 16.4243 16.0008 16.4964 16.1995 16.4952H16.2879C16.4987 16.4711 16.6913 16.3651 16.8238 16.2003C16.9563 16.0356 17.018 15.8254 16.9954 15.6157C16.8342 14.1735 16.2814 12.8021 15.3962 11.6485C14.5111 10.495 13.3269 9.60273 11.9707 9.06746ZM8.98808 8.49978C8.35205 8.49978 7.73031 8.31222 7.20147 7.9608C6.67264 7.60938 6.26046 7.1099 6.01706 6.52551C5.77367 5.94112 5.70998 5.29808 5.83406 4.6777C5.95815 4.05732 6.26442 3.48746 6.71416 3.04019C7.1639 2.59292 7.7369 2.28833 8.3607 2.16492C8.98451 2.04152 9.6311 2.10486 10.2187 2.34692C10.8063 2.58898 11.3086 2.99889 11.6619 3.52483C12.0153 4.05076 12.2039 4.66909 12.2039 5.30163C12.2039 6.14983 11.8651 6.9633 11.262 7.56307C10.6589 8.16284 9.84096 8.49978 8.98808 8.49978Z" fill="#0B0B0B" stroke="black" stroke-width="0.7"/>
</svg>
