<svg width="40" height="40" viewBox="0 0 40 40" fill="none" xmlns="http://www.w3.org/2000/svg">
<circle cx="20" cy="20" r="20" fill="#E4E4E4"/>
<path d="M20.1197 19.715C20.0972 19.715 20.0822 19.715 20.0597 19.715C20.0222 19.7075 19.9697 19.7075 19.9247 19.715C17.7497 19.6475 16.1072 17.9375 16.1072 15.83C16.1072 13.685 17.8547 11.9375 19.9997 11.9375C22.1447 11.9375 23.8922 13.685 23.8922 15.83C23.8847 17.9375 22.2347 19.6475 20.1422 19.715C20.1347 19.715 20.1272 19.715 20.1197 19.715ZM19.9997 13.0625C18.4772 13.0625 17.2322 14.3075 17.2322 15.83C17.2322 17.33 18.4022 18.5375 19.8947 18.59C19.9322 18.5825 20.0372 18.5825 20.1347 18.59C21.6047 18.5225 22.7597 17.315 22.7672 15.83C22.7672 14.3075 21.5222 13.0625 19.9997 13.0625Z" fill="#858686"/>
<path d="M20.1272 27.9125C18.6572 27.9125 17.1797 27.5375 16.0622 26.7875C15.0197 26.0975 14.4497 25.1525 14.4497 24.125C14.4497 23.0975 15.0197 22.145 16.0622 21.4475C18.3122 19.955 21.9572 19.955 24.1922 21.4475C25.2272 22.1375 25.8047 23.0825 25.8047 24.11C25.8047 25.1375 25.2347 26.09 24.1922 26.7875C23.0672 27.5375 21.5972 27.9125 20.1272 27.9125ZM16.6847 22.3925C15.9647 22.8725 15.5747 23.4875 15.5747 24.1325C15.5747 24.77 15.9722 25.385 16.6847 25.8575C18.5522 27.11 21.7022 27.11 23.5697 25.8575C24.2897 25.3775 24.6797 24.7625 24.6797 24.1175C24.6797 23.48 24.2822 22.865 23.5697 22.3925C21.7022 21.1475 18.5522 21.1475 16.6847 22.3925Z" fill="#858686"/>
</svg>
