<svg width="18" height="17" viewBox="0 0 18 17" fill="none" xmlns="http://www.w3.org/2000/svg">
<path d="M14.651 1.8112H12.9844V0.977865C12.9844 0.756851 12.8966 0.544889 12.7403 0.388609C12.584 0.232329 12.3721 0.144531 12.151 0.144531C11.93 0.144531 11.7181 0.232329 11.5618 0.388609C11.4055 0.544889 11.3177 0.756851 11.3177 0.977865V1.8112H6.31771V0.977865C6.31771 0.756851 6.22991 0.544889 6.07363 0.388609C5.91735 0.232329 5.70539 0.144531 5.48438 0.144531C5.26336 0.144531 5.0514 0.232329 4.89512 0.388609C4.73884 0.544889 4.65104 0.756851 4.65104 0.977865V1.8112H2.98438C2.32133 1.8112 1.68545 2.07459 1.21661 2.54343C0.747767 3.01227 0.484375 3.64816 0.484375 4.3112V14.3112C0.484375 14.9742 0.747767 15.6101 1.21661 16.079C1.68545 16.5478 2.32133 16.8112 2.98438 16.8112H14.651C15.3141 16.8112 15.95 16.5478 16.4188 16.079C16.8877 15.6101 17.151 14.9742 17.151 14.3112V4.3112C17.151 3.64816 16.8877 3.01227 16.4188 2.54343C15.95 2.07459 15.3141 1.8112 14.651 1.8112ZM15.4844 14.3112C15.4844 14.5322 15.3966 14.7442 15.2403 14.9005C15.084 15.0567 14.8721 15.1445 14.651 15.1445H2.98438C2.76336 15.1445 2.5514 15.0567 2.39512 14.9005C2.23884 14.7442 2.15104 14.5322 2.15104 14.3112V8.47787H15.4844V14.3112ZM15.4844 6.8112H2.15104V4.3112C2.15104 4.09018 2.23884 3.87822 2.39512 3.72194C2.5514 3.56566 2.76336 3.47786 2.98438 3.47786H4.65104V4.3112C4.65104 4.53221 4.73884 4.74417 4.89512 4.90045C5.0514 5.05673 5.26336 5.14453 5.48438 5.14453C5.70539 5.14453 5.91735 5.05673 6.07363 4.90045C6.22991 4.74417 6.31771 4.53221 6.31771 4.3112V3.47786H11.3177V4.3112C11.3177 4.53221 11.4055 4.74417 11.5618 4.90045C11.7181 5.05673 11.93 5.14453 12.151 5.14453C12.3721 5.14453 12.584 5.05673 12.7403 4.90045C12.8966 4.74417 12.9844 4.53221 12.9844 4.3112V3.47786H14.651C14.8721 3.47786 15.084 3.56566 15.2403 3.72194C15.3966 3.87822 15.4844 4.09018 15.4844 4.3112V6.8112Z" fill="#090A0D"/>
</svg>
