<svg width="16" height="16" viewBox="0 0 16 16" fill="none" xmlns="http://www.w3.org/2000/svg">
<path d="M8.00065 1.3335C6.68211 1.3335 5.39318 1.72449 4.29685 2.45703C3.20052 3.18957 2.34604 4.23077 1.84146 5.44894C1.33687 6.66711 1.20485 8.00756 1.46209 9.30077C1.71932 10.594 2.35426 11.7819 3.28661 12.7142C4.21896 13.6466 5.40685 14.2815 6.70005 14.5387C7.99326 14.796 9.3337 14.6639 10.5519 14.1594C11.7701 13.6548 12.8112 12.8003 13.5438 11.704C14.2763 10.6076 14.6673 9.31871 14.6673 8.00016C14.6654 6.23266 13.9623 4.53811 12.7125 3.28829C11.4627 2.03847 9.76816 1.33546 8.00065 1.3335ZM8.00065 13.3335C6.94582 13.3335 5.91467 13.0207 5.03761 12.4347C4.16055 11.8486 3.47696 11.0157 3.0733 10.0411C2.66963 9.0666 2.56401 7.99425 2.7698 6.95968C2.97559 5.92512 3.48354 4.97481 4.22942 4.22893C4.9753 3.48305 5.92561 2.9751 6.96017 2.76931C7.99474 2.56352 9.06709 2.66914 10.0416 3.07281C11.0162 3.47647 11.8491 4.16006 12.4352 5.03712C13.0212 5.91418 13.334 6.94533 13.334 8.00016C13.3324 9.41415 12.7699 10.7698 11.7701 11.7696C10.7703 12.7695 9.41465 13.3319 8.00065 13.3335ZM8.00065 7.66683C7.82384 7.66683 7.65427 7.73707 7.52925 7.86209C7.40423 7.98712 7.33399 8.15669 7.33399 8.3335V10.3335C7.33399 10.5103 7.40423 10.6799 7.52925 10.8049C7.65427 10.9299 7.82384 11.0002 8.00065 11.0002C8.17747 11.0002 8.34703 10.9299 8.47206 10.8049C8.59708 10.6799 8.66732 10.5103 8.66732 10.3335V8.3335C8.66732 8.15669 8.59708 7.98712 8.47206 7.86209C8.34703 7.73707 8.17747 7.66683 8.00065 7.66683ZM8.00065 5.00016C7.83584 5.00016 7.67472 5.04904 7.53768 5.1406C7.40064 5.23217 7.29383 5.36232 7.23075 5.51459C7.16768 5.66686 7.15118 5.83442 7.18333 5.99607C7.21549 6.15772 7.29486 6.30621 7.4114 6.42275C7.52794 6.5393 7.67643 6.61866 7.83808 6.65082C7.99973 6.68297 8.16729 6.66647 8.31956 6.6034C8.47183 6.54032 8.60198 6.43351 8.69355 6.29647C8.78511 6.15943 8.83399 5.99831 8.83399 5.8335C8.83399 5.61248 8.74619 5.40052 8.58991 5.24424C8.43363 5.08796 8.22167 5.00016 8.00065 5.00016Z" fill="#0EADE5"/>
</svg>
