<svg width="24" height="25" viewBox="0 0 24 25" fill="none" xmlns="http://www.w3.org/2000/svg">
<path d="M20.2604 7.58115L20.5 7.43498V7.1543C20.5 6.75647 20.342 6.37494 20.0607 6.09364C19.7794 5.81233 19.3978 5.6543 19 5.6543H5C4.60217 5.6543 4.22064 5.81233 3.93934 6.09364C3.65804 6.37494 3.5 6.75647 3.5 7.1543V7.43498L3.73962 7.58115L11.7396 12.4611L12 12.62L12.2604 12.4611L20.2604 7.58115ZM4.26068 9.00763L3.5 8.54288V9.4343V17.1543C3.5 17.5521 3.65804 17.9337 3.93934 18.215C4.22065 18.4963 4.60218 18.6543 5 18.6543H19C19.3978 18.6543 19.7794 18.4963 20.0607 18.215C20.342 17.9337 20.5 17.5521 20.5 17.1543V9.4343V8.54535L19.7403 9.00701L12.2259 13.5736C12.1509 13.616 12.0662 13.6383 11.98 13.6383C11.8939 13.6383 11.8094 13.6161 11.7345 13.5738L4.26068 9.00763ZM5 4.6543H19C19.663 4.6543 20.2989 4.91769 20.7678 5.38653C21.2366 5.85537 21.5 6.49126 21.5 7.1543V17.1543C21.5 17.8173 21.2366 18.4532 20.7678 18.9221C20.2989 19.3909 19.663 19.6543 19 19.6543H5C4.33696 19.6543 3.70107 19.3909 3.23223 18.9221C2.76339 18.4532 2.5 17.8173 2.5 17.1543V7.1543C2.5 6.49126 2.76339 5.85537 3.23223 5.38653C3.70107 4.91769 4.33696 4.6543 5 4.6543Z" stroke="#6F7070"/>
</svg>
